<svg width="328" height="328" viewBox="0 0 328 328" fill="none" xmlns="http://www.w3.org/2000/svg">
<rect x="54.5" y="54.5" width="219" height="219" rx="109.5" stroke="white"/>
<rect x="0.5" y="0.5" width="327" height="327" rx="163.5" stroke="#3A416A" stroke-dasharray="6 6"/>
<rect x="303.5" y="24.5" width="279" height="279" rx="139.5" transform="rotate(90 303.5 24.5)" stroke="#3A416A" stroke-dasharray="6 6"/>
<rect x="295.5" y="32.5" width="263" height="263" rx="131.5" transform="rotate(90 295.5 32.5)" stroke="#3A416A"/>
<rect x="89.2832" y="46.6299" width="4" height="4" rx="2" transform="rotate(114.04 89.2832 46.6299)" fill="url(#paint0_linear_1563_15)"/>
<rect x="153.283" y="301.63" width="4" height="4" rx="2" transform="rotate(114.04 153.283 301.63)" fill="url(#paint1_linear_1563_15)"/>
<rect x="291.283" y="225.63" width="4" height="4" rx="2" transform="rotate(114.04 291.283 225.63)" fill="url(#paint2_linear_1563_15)"/>
<rect x="286.283" y="90.6299" width="4" height="4" rx="2" transform="rotate(114.04 286.283 90.6299)" fill="url(#paint3_linear_1563_15)"/>
<rect x="278.25" y="275.25" width="5.5" height="5.5" rx="2.75" fill="#071D49" stroke="url(#paint4_linear_1563_15)" stroke-width="0.5"/>
<rect x="10.25" y="99.25" width="5.5" height="5.5" rx="2.75" fill="#071D49" stroke="url(#paint5_linear_1563_15)" stroke-width="0.5"/>
<rect x="68" y="28" width="4" height="4" rx="2" fill="url(#paint6_linear_1563_15)"/>
<rect x="323" y="134" width="4" height="4" rx="2" fill="url(#paint7_linear_1563_15)"/>
<defs>
<linearGradient id="paint0_linear_1563_15" x1="91.2832" y1="46.6299" x2="91.2832" y2="50.6299" gradientUnits="userSpaceOnUse">
<stop stop-color="#F9F9F9"/>
<stop offset="1" stop-color="#8F8F8F"/>
</linearGradient>
<linearGradient id="paint1_linear_1563_15" x1="155.283" y1="301.63" x2="155.283" y2="305.63" gradientUnits="userSpaceOnUse">
<stop stop-color="#F9F9F9"/>
<stop offset="1" stop-color="#8F8F8F"/>
</linearGradient>
<linearGradient id="paint2_linear_1563_15" x1="293.283" y1="225.63" x2="293.283" y2="229.63" gradientUnits="userSpaceOnUse">
<stop stop-color="#F9F9F9"/>
<stop offset="1" stop-color="#8F8F8F"/>
</linearGradient>
<linearGradient id="paint3_linear_1563_15" x1="288.283" y1="90.6299" x2="288.283" y2="94.6299" gradientUnits="userSpaceOnUse">
<stop stop-color="#F9F9F9"/>
<stop offset="1" stop-color="#8F8F8F"/>
</linearGradient>
<linearGradient id="paint4_linear_1563_15" x1="277.66" y1="275" x2="280.441" y2="282.51" gradientUnits="userSpaceOnUse">
<stop stop-color="#6F543D"/>
<stop offset="0.3613" stop-color="#A68457"/>
<stop offset="0.5796" stop-color="#C39D64"/>
<stop offset="0.6584" stop-color="#BB9661"/>
<stop offset="0.7779" stop-color="#A68457"/>
<stop offset="0.9227" stop-color="#846747"/>
<stop offset="1" stop-color="#6F543D"/>
</linearGradient>
<linearGradient id="paint5_linear_1563_15" x1="9.66028" y1="99" x2="12.4413" y2="106.51" gradientUnits="userSpaceOnUse">
<stop stop-color="#6F543D"/>
<stop offset="0.3613" stop-color="#A68457"/>
<stop offset="0.5796" stop-color="#C39D64"/>
<stop offset="0.6584" stop-color="#BB9661"/>
<stop offset="0.7779" stop-color="#A68457"/>
<stop offset="0.9227" stop-color="#846747"/>
<stop offset="1" stop-color="#6F543D"/>
</linearGradient>
<linearGradient id="paint6_linear_1563_15" x1="67.7735" y1="28" x2="69.6275" y2="33.0069" gradientUnits="userSpaceOnUse">
<stop stop-color="#6F543D"/>
<stop offset="0.3613" stop-color="#A68457"/>
<stop offset="0.5796" stop-color="#C39D64"/>
<stop offset="0.6584" stop-color="#BB9661"/>
<stop offset="0.7779" stop-color="#A68457"/>
<stop offset="0.9227" stop-color="#846747"/>
<stop offset="1" stop-color="#6F543D"/>
</linearGradient>
<linearGradient id="paint7_linear_1563_15" x1="322.774" y1="134" x2="324.628" y2="139.007" gradientUnits="userSpaceOnUse">
<stop stop-color="#6F543D"/>
<stop offset="0.3613" stop-color="#A68457"/>
<stop offset="0.5796" stop-color="#C39D64"/>
<stop offset="0.6584" stop-color="#BB9661"/>
<stop offset="0.7779" stop-color="#A68457"/>
<stop offset="0.9227" stop-color="#846747"/>
<stop offset="1" stop-color="#6F543D"/>
</linearGradient>
</defs>
</svg>
