<svg width="188" height="46" viewBox="0 0 188 46" fill="none" xmlns="http://www.w3.org/2000/svg">
<path d="M62.5899 42.8868C62.5899 44.5722 61.2188 45.9323 59.5319 45.9323C57.8521 45.9323 56.475 44.5722 56.475 42.8868C56.475 41.2019 57.8521 39.8396 59.5319 39.8396C61.2188 39.8396 62.5899 41.2019 62.5899 42.8868ZM170.092 45.9533C166.147 45.9286 164.317 42.662 163.865 41.6083C159.361 30.4658 172.568 20.1098 172.568 20.1098H180.22C180.22 20.1098 168.572 29.3901 170.182 37.6123C171.269 41.6051 174.742 40.5562 177.01 37.4112C179.766 33.5915 182.251 26.0542 180.379 25.8504C178.64 25.6607 176.331 29.4046 176.331 29.4046L176.318 29.3933L174.7 26.9359C175.958 25.3139 179.536 21.0765 183.516 19.7507C184.118 19.5647 187.73 18.6212 187.73 23.9301C187.73 29.61 181.375 46.0243 170.092 45.9533ZM111.07 40.2939C111.987 39.7235 113.238 38.7353 113.238 38.7353L114.012 41.0895C113.553 41.5745 109.824 44.5173 107.508 45.5942C105.008 46.7565 102.704 45.2248 102.389 43.3513C102.029 41.2062 103.142 38.3999 103.142 38.3999C103.142 38.3999 99.154 42.9233 95.0937 45.1265C93.9661 45.7388 93.1051 45.9845 92.4158 45.9678C89.6812 45.9017 88.824 43.2647 89.123 41.8535C89.4803 40.1697 93.1807 28.8229 93.6476 26.9585C93.6935 26.7741 93.5099 26.5574 93.2611 26.6257C92.1399 26.9348 89.1991 28.8428 89.1991 28.8428V25.6902C89.1991 25.6902 97.2858 20.2222 99.4212 19.6185C101.396 19.061 103.084 20.184 102.587 22.42C102.36 23.9699 97.5438 37.086 97.2426 38.673C97.1827 38.9896 97.5141 39.0144 97.6059 38.9864C99.1756 38.509 102.071 36.0645 104.286 32.5792C106.356 29.3234 107.775 25.1897 109.492 20.0889H116.867C116.867 20.0889 111.291 37.1193 110.662 39.9434C110.593 40.2525 110.911 40.3928 111.07 40.2939ZM81.9313 24.1747C79.343 26.1456 77.3376 27.1283 77.3376 27.1283C77.3376 27.1283 78.0534 25.4537 78.6294 24.4865C80.1197 21.9845 87.3368 12.3408 93.3556 10.5511C93.5893 10.4818 93.762 10.6501 93.7555 10.8877C93.6994 12.9908 86.0597 21.0308 81.9313 24.1747ZM99.2749 5.26159C93.7976 3.3606 74.3963 9.48506 68.044 30.847C67.2645 31.062 63.5334 32.0174 63.5334 32.0174L61.9092 36.3919L67.6801 34.635C67.6801 34.635 67.048 45.6119 76.7358 45.9323C84.3534 45.6506 88.4326 34.5678 86.0597 27.445C85.5782 27.6805 79.363 30.3051 79.363 30.3051C79.363 30.3051 80.6056 37.5069 77.8942 39.1773C77.4747 39.4353 76.9252 39.4009 76.5711 38.9106C75.7836 37.8193 75.281 34.9925 76.1636 31.2298C90.1125 24.0081 99.6334 11.2968 100.214 6.92281C100.363 5.79759 99.4687 5.32879 99.2749 5.26159ZM127.64 39.2144C126.628 39.9326 124.838 40.2998 124.495 37.1257C124.001 32.563 127.171 27.0611 128.155 25.7822C129.835 23.5984 132.179 23.4328 132.227 26.7423C132.282 30.5502 130.169 37.4204 127.64 39.2144ZM131.582 7.82599C126.516 7.89212 123.933 10.5221 123.933 10.5221L124.065 13.6123C124.065 13.6123 127.29 10.4108 130.96 11.7608C133.454 12.6785 135.93 15.8396 134.235 22.8436C132.711 18.9513 126.806 18.0917 122.058 23.1769C118.268 27.2364 113.147 40.7815 120.707 44.9512C130.106 50.1348 138.354 34.9533 140.256 24.5984C141.455 18.0734 142.169 7.68782 131.582 7.82599ZM21.2452 44.42C17.9476 40.9965 21.0623 29.4207 21.7068 26.9273C21.7672 26.695 21.5902 26.4692 21.3489 26.4692C21.2085 26.4692 21.0812 26.5461 21.0185 26.6714C19.6291 29.4621 12.0995 45.9323 5.43246 45.9323C5.30884 45.9323 5.17875 45.9323 5.0519 45.9232C-1.38895 45.3238 -0.546325 36.4613 1.45632 31.0916H11.8404C10.994 33.4114 10.7014 34.8721 10.7311 35.6323C10.7521 36.1833 11.2131 36.4639 11.6595 36.2306C12.7343 35.671 14.5075 33.356 16.0492 30.6889C18.861 25.823 22.4706 18.497 28.7042 0H40.1073C36.7271 10.3038 33.978 19.6233 32.4789 30.2809C32.4039 30.8126 33.0171 31.2577 33.504 30.8018C36.7579 27.7552 48.6118 2.21872 49.3568 0H60.7724C60.7724 0 49.4539 31.2222 50.4023 36.4182C50.5314 37.1241 51.2644 37.3123 51.8609 36.6338C52.555 35.8452 53.6341 34.4452 54.2705 33.7087L56.0346 35.4629C52.7882 39.4541 47.515 46.6758 42.2476 45.8071C41.4315 45.6721 40.6417 45.2092 40.0507 44.6098C34.569 39.8649 42.2174 24.0172 43.5577 20.2948C43.8546 19.4706 44.1461 18.7174 44.3318 18.2481C44.4268 18.0078 44.2492 17.7481 43.9901 17.746C43.8449 17.7444 43.7137 17.8255 43.6527 17.9562C43.3888 18.5164 42.6773 20.0254 42.4355 20.5329C39.0407 27.4977 31.2509 45.9323 24.8522 45.9323C23.8487 45.9323 22.3486 45.5587 21.2452 44.42ZM150.885 29.0309C152.844 25.5671 156.039 22.8619 157.586 23.943C159.141 25.0166 155.996 30.4938 148.609 36.3226C148.313 35.8102 148.913 32.505 150.885 29.0309ZM149.063 39.4568C162.769 32.2727 166.06 23.1705 161.837 20.6243C155.607 17.1476 138.525 23.3651 140.461 40.3788C139.614 40.8842 137.931 41.7927 137.931 41.7927L139.069 45.234C139.069 45.234 141.45 43.8136 142.094 43.3722C144.106 44.9878 145.141 45.8764 148.248 45.9366C154.848 46.0732 160.545 38.781 160.545 38.781L158.867 36.215C158.867 36.215 151.613 43.1507 149.063 39.4568Z" fill="#B6B6B6"/>
</svg>
