<svg width="10" height="37" viewBox="0 0 10 37" fill="none" xmlns="http://www.w3.org/2000/svg">
<path d="M4.10388 18.2052C4.10388 12.0097 5.28016 6.8309 8.83512 1.27087C8.96582 1.08024 9.75 0 9.75 0C9.75 0 7.50201 1.04846 5.69839 2.95476C4.41756 4.28917 3.29357 5.78244 2.32641 7.8476C0.496647 11.7555 0 14.9327 0 18.2052C0 21.4776 0.496647 24.6548 2.32641 28.5627C3.29357 30.6279 4.41756 32.1211 5.69839 33.4555C7.52815 35.3618 9.75 36.4103 9.75 36.4103C9.75 36.4103 8.96582 35.3301 8.83512 35.1394C5.28016 29.5794 4.10388 24.4006 4.10388 18.2052Z" fill="url(#paint0_linear_295_161)"/>
<defs>
<linearGradient id="paint0_linear_295_161" x1="4.875" y1="0" x2="4.875" y2="36.4103" gradientUnits="userSpaceOnUse">
<stop stop-color="#F9F9F9"/>
<stop offset="1" stop-color="#8F8F8F"/>
</linearGradient>
</defs>
</svg>
