<svg width="151" height="37" viewBox="0 0 151 37" fill="none" xmlns="http://www.w3.org/2000/svg">
<path d="M50.344 34.4959C50.344 35.8515 49.2412 36.9456 47.8844 36.9456C46.5332 36.9456 45.4256 35.8515 45.4256 34.4959C45.4256 33.1407 46.5332 32.0449 47.8844 32.0449C49.2412 32.0449 50.344 33.1407 50.344 34.4959ZM136.813 36.9624C133.64 36.9425 132.168 34.3151 131.805 33.4676C128.181 24.5051 138.805 16.1753 138.805 16.1753H144.959C144.959 16.1753 135.59 23.6398 136.886 30.2534C137.76 33.465 140.554 32.6213 142.378 30.0916C144.594 27.0192 146.593 20.9566 145.088 20.7927C143.689 20.6401 141.831 23.6515 141.831 23.6515L141.821 23.6424L140.519 21.6658C141.531 20.3612 144.409 16.9528 147.61 15.8864C148.095 15.7368 151 14.9779 151 19.2481C151 23.8167 145.888 37.0195 136.813 36.9624ZM89.3389 32.4103C90.0766 31.9515 91.0831 31.1567 91.0831 31.1567L91.7052 33.0503C91.3358 33.4403 88.3364 35.8074 86.4742 36.6736C84.4631 37.6085 82.6095 36.3765 82.3564 34.8695C82.0668 33.1441 82.9621 30.8869 82.9621 30.8869C82.9621 30.8869 79.7543 34.5253 76.4884 36.2974C75.5814 36.7899 74.8889 36.9875 74.3344 36.9741C72.1348 36.9209 71.4454 34.7999 71.6859 33.6648C71.9733 32.3104 74.9497 23.1836 75.3252 21.684C75.3621 21.5357 75.2145 21.3614 75.0143 21.4163C74.1125 21.665 71.7471 23.1996 71.7471 23.1996V20.6639C71.7471 20.6639 78.2516 16.2657 79.9693 15.7801C81.5575 15.3316 82.9152 16.235 82.5157 18.0334C82.3329 19.2801 78.4592 29.83 78.2169 31.1065C78.1687 31.3612 78.4353 31.3811 78.5091 31.3586C79.7717 30.9746 82.1007 29.0084 83.8821 26.205C85.5472 23.5862 86.6882 20.2613 88.0694 16.1584H94.0021C94.0021 16.1584 89.517 29.8568 89.0111 32.1284C88.9556 32.377 89.2113 32.4899 89.3389 32.4103ZM65.9013 19.4449C63.8193 21.0301 62.2063 21.8206 62.2063 21.8206C62.2063 21.8206 62.7821 20.4736 63.2454 19.6957C64.4441 17.6832 70.2492 9.92633 75.0903 8.48679C75.2783 8.431 75.4173 8.56635 75.4121 8.75748C75.3669 10.4491 69.2219 16.9161 65.9013 19.4449ZM79.8516 4.23215C75.4459 2.70309 59.8405 7.62928 54.731 24.8117C54.104 24.9847 51.103 25.7531 51.103 25.7531L49.7965 29.2717L54.4384 27.8586C54.4384 27.8586 53.9299 36.6878 61.7222 36.9456C67.8494 36.719 71.1306 27.8045 69.2219 22.0753C68.8346 22.2647 63.8354 24.3758 63.8354 24.3758C63.8354 24.3758 64.8349 30.1686 62.654 31.5121C62.3166 31.7197 61.8746 31.692 61.5898 31.2977C60.9563 30.4198 60.5521 28.1461 61.262 25.1196C72.4818 19.3108 80.1399 9.08656 80.6066 5.56834C80.7269 4.66328 80.0075 4.2862 79.8516 4.23215ZM102.667 31.542C101.853 32.1197 100.413 32.415 100.137 29.862C99.7398 26.192 102.29 21.7666 103.081 20.7378C104.432 18.9813 106.318 18.8481 106.357 21.5101C106.401 24.573 104.701 30.099 102.667 31.542ZM105.837 6.29482C101.763 6.34801 99.6851 8.46343 99.6851 8.46343L99.7915 10.949C99.7915 10.949 102.386 8.37392 105.337 9.45974C107.343 10.1979 109.335 12.7406 107.972 18.3742C106.746 15.2434 101.996 14.552 98.1772 18.6423C95.1283 21.9075 91.0097 32.8025 97.0904 36.1564C104.65 40.3258 111.284 28.1146 112.814 19.7856C113.779 14.5373 114.353 6.18368 105.837 6.29482ZM17.0886 35.7292C14.4361 32.9755 16.9414 23.6645 17.4598 21.6589C17.5084 21.4721 17.366 21.2905 17.1719 21.2905C17.059 21.2905 16.9566 21.3523 16.9062 21.4531C15.7886 23.6978 9.73219 36.9456 4.36958 36.9456C4.27016 36.9456 4.16552 36.9456 4.06348 36.9382C-1.1172 36.4561 -0.439435 29.3275 1.17139 25.0085H9.52378C8.84298 26.8744 8.60765 28.0493 8.63153 28.6607C8.64847 29.104 9.01926 29.3297 9.37833 29.142C10.2428 28.6919 11.6691 26.8298 12.9091 24.6846C15.1708 20.7707 18.0742 14.878 23.0881 0H32.2603C29.5414 8.28787 27.3301 15.784 26.1244 24.3564C26.064 24.784 26.5573 25.1421 26.9489 24.7754C29.5661 22.3248 39.1008 1.78462 39.7 0H48.8821C48.8821 0 39.7781 25.1135 40.541 29.2929C40.6448 29.8607 41.2344 30.0121 41.7142 29.4663C42.2725 28.832 43.1405 27.7059 43.6524 27.1135L45.0713 28.5245C42.4601 31.7348 38.2186 37.5436 33.9818 36.8448C33.3253 36.7363 32.6901 36.364 32.2147 35.8818C27.8055 32.0652 33.9575 19.3182 35.0356 16.3241C35.2744 15.6612 35.5088 15.0553 35.6582 14.6778C35.7346 14.4845 35.5917 14.2757 35.3833 14.2739C35.2665 14.2726 35.161 14.3379 35.112 14.443C34.8997 14.8936 34.3274 16.1074 34.1329 16.5156C31.4023 22.1177 25.1366 36.9456 19.9898 36.9456C19.1826 36.9456 17.976 36.645 17.0886 35.7292ZM121.364 23.351C122.94 20.5649 125.509 18.3889 126.754 19.2585C128.005 20.1221 125.475 24.5276 119.533 29.216C119.295 28.8039 119.778 26.1453 121.364 23.351ZM119.899 31.737C130.923 25.9585 133.57 18.6371 130.173 16.5891C125.162 13.7926 111.422 18.7936 112.98 32.4786C112.299 32.8851 110.944 33.6159 110.944 33.6159L111.86 36.3839C111.86 36.3839 113.775 35.2414 114.293 34.8864C115.911 36.1858 116.744 36.9006 119.243 36.949C124.552 37.0589 129.134 31.1934 129.134 31.1934L127.784 29.1295C127.784 29.1295 121.95 34.7082 119.899 31.737Z" fill="white"/>
</svg>
