<svg width="307" height="420" viewBox="0 0 307 420" fill="none" xmlns="http://www.w3.org/2000/svg">
<g filter="url(#filter0_d_1556_137)">
<path d="M174.68 80C174.68 80 174.19 188.43 174.19 192.536C174.19 205.335 161.213 215.96 147.746 212.097C138.687 209.44 132.565 200.988 132.565 191.57V80H100C100 103.183 99.9999 153.172 100.245 170.318C100.245 180.944 100.245 188.43 100.245 189.879C100.245 219.341 124.24 243.249 153.622 243.249C160.723 243.249 167.824 241.8 174.19 239.144V248.803C174.19 260.154 164.886 269.089 153.378 269.33H151.419V300H153.378C182.27 300 206.755 276.817 207 249.286C207 249.045 207 248.803 207 248.803V80H174.68Z" fill="url(#paint0_linear_1556_137)"/>
</g>
<defs>
<filter id="filter0_d_1556_137" x="0" y="0" width="307" height="420" filterUnits="userSpaceOnUse" color-interpolation-filters="sRGB">
<feFlood flood-opacity="0" result="BackgroundImageFix"/>
<feColorMatrix in="SourceAlpha" type="matrix" values="0 0 0 0 0 0 0 0 0 0 0 0 0 0 0 0 0 0 127 0" result="hardAlpha"/>
<feOffset dy="20"/>
<feGaussianBlur stdDeviation="50"/>
<feComposite in2="hardAlpha" operator="out"/>
<feColorMatrix type="matrix" values="0 0 0 0 0.0800724 0 0 0 0 0.127709 0 0 0 0 0.222982 0 0 0 1 0"/>
<feBlend mode="normal" in2="BackgroundImageFix" result="effect1_dropShadow_1556_137"/>
<feBlend mode="normal" in="SourceGraphic" in2="effect1_dropShadow_1556_137" result="shape"/>
</filter>
<linearGradient id="paint0_linear_1556_137" x1="-902.094" y1="-211.561" x2="333.27" y2="259.918" gradientUnits="userSpaceOnUse">
<stop stop-color="#6F543D"/>
<stop offset="0.3613" stop-color="#A68457"/>
<stop offset="0.5796" stop-color="#C39D64"/>
<stop offset="0.6584" stop-color="#BB9661"/>
<stop offset="0.7779" stop-color="#A68457"/>
<stop offset="0.9227" stop-color="#846747"/>
<stop offset="1" stop-color="#6F543D"/>
</linearGradient>
</defs>
</svg>
