<svg width="10" height="6" viewBox="0 0 10 6" fill="none" xmlns="http://www.w3.org/2000/svg">
<path d="M5.27135 5.38367L9.25385 1.20392C9.32033 1.13418 9.35742 1.04153 9.35742 0.945175C9.35742 0.848822 9.32033 0.756166 9.25385 0.686425L9.24935 0.681925C9.21712 0.647998 9.17833 0.620984 9.13533 0.602523C9.09233 0.584063 9.04602 0.574543 8.99923 0.574543C8.95243 0.574543 8.90613 0.584063 8.86313 0.602523C8.82013 0.620984 8.78133 0.647998 8.7491 0.681925L4.9991 4.61792L1.2506 0.681924C1.21837 0.647998 1.17958 0.620983 1.13658 0.602523C1.09358 0.584062 1.04727 0.574543 1.00048 0.574543C0.953681 0.574543 0.907376 0.584062 0.864376 0.602523C0.821376 0.620983 0.782582 0.647998 0.750351 0.681924L0.745851 0.686424C0.679367 0.756166 0.642279 0.848821 0.642279 0.945174C0.642279 1.04153 0.679367 1.13418 0.745851 1.20392L4.72835 5.38367C4.76337 5.42043 4.8055 5.4497 4.85217 5.46969C4.89883 5.48969 4.94908 5.5 4.99985 5.5C5.05062 5.5 5.10087 5.48969 5.14754 5.46969C5.19421 5.4497 5.23633 5.42043 5.27135 5.38367Z" fill="white"/>
</svg>
