<svg width="291" height="477" viewBox="0 0 291 477" fill="none" xmlns="http://www.w3.org/2000/svg">
<g filter="url(#filter0_d_1556_138)">
<path d="M138.303 218.5C138.303 171.367 149.281 131.968 182.461 89.6684C183.681 88.2182 191 80 191 80C191 80 170.019 87.9764 153.185 102.479C141.231 112.631 130.74 123.991 121.713 139.702C104.635 169.433 100 193.604 100 218.5C100 243.396 104.635 267.567 121.713 297.298C130.74 313.009 141.231 324.369 153.185 334.521C170.263 349.024 191 357 191 357C191 357 183.681 348.782 182.461 347.332C149.281 305.032 138.303 265.634 138.303 218.5Z" fill="url(#paint0_linear_1556_138)"/>
</g>
<defs>
<filter id="filter0_d_1556_138" x="0" y="0" width="291" height="477" filterUnits="userSpaceOnUse" color-interpolation-filters="sRGB">
<feFlood flood-opacity="0" result="BackgroundImageFix"/>
<feColorMatrix in="SourceAlpha" type="matrix" values="0 0 0 0 0 0 0 0 0 0 0 0 0 0 0 0 0 0 127 0" result="hardAlpha"/>
<feOffset dy="20"/>
<feGaussianBlur stdDeviation="50"/>
<feComposite in2="hardAlpha" operator="out"/>
<feColorMatrix type="matrix" values="0 0 0 0 0.0800724 0 0 0 0 0.127709 0 0 0 0 0.222982 0 0 0 1 0"/>
<feBlend mode="normal" in2="BackgroundImageFix" result="effect1_dropShadow_1556_138"/>
<feBlend mode="normal" in="SourceGraphic" in2="effect1_dropShadow_1556_138" result="shape"/>
</filter>
<linearGradient id="paint0_linear_1556_138" x1="94.8476" y1="80" x2="290.579" y2="253.653" gradientUnits="userSpaceOnUse">
<stop stop-color="#6F543D"/>
<stop offset="0.3613" stop-color="#A68457"/>
<stop offset="0.5796" stop-color="#C39D64"/>
<stop offset="0.6584" stop-color="#BB9661"/>
<stop offset="0.7779" stop-color="#A68457"/>
<stop offset="0.9227" stop-color="#846747"/>
<stop offset="1" stop-color="#6F543D"/>
</linearGradient>
</defs>
</svg>
