<svg width="81" height="246" viewBox="0 0 81 246" fill="none" xmlns="http://www.w3.org/2000/svg">
<path d="M34.0225 122.952C34.0225 81.3632 43.7265 46.5989 73.054 9.27526C74.1322 7.99559 80.6015 0.744141 80.6015 0.744141C80.6015 0.744141 62.0561 7.78231 47.1768 20.579C36.6102 29.5367 27.3376 39.5607 19.3588 53.4238C4.26372 79.657 0.166504 100.985 0.166504 122.952C0.166504 144.92 4.26372 166.248 19.3588 192.481C27.3376 206.344 36.6102 216.368 47.1768 225.326C62.2718 238.123 80.6015 245.161 80.6015 245.161C80.6015 245.161 74.1322 237.909 73.054 236.63C43.7265 199.306 34.0225 164.542 34.0225 122.952Z" fill="url(#paint0_linear_22_2920)"/>
<defs>
<linearGradient id="paint0_linear_22_2920" x1="-4.38774" y1="0.744145" x2="168.355" y2="154.267" gradientUnits="userSpaceOnUse">
<stop stop-color="#6F543D"/>
<stop offset="0.3613" stop-color="#A68457"/>
<stop offset="0.5796" stop-color="#C39D64"/>
<stop offset="0.6584" stop-color="#BB9661"/>
<stop offset="0.7779" stop-color="#A68457"/>
<stop offset="0.9227" stop-color="#846747"/>
<stop offset="1" stop-color="#6F543D"/>
</linearGradient>
</defs>
</svg>
