<svg width="213" height="52" viewBox="0 0 213 52" fill="none" xmlns="http://www.w3.org/2000/svg">
<path d="M70.7538 48.4807C70.7538 50.3859 69.2038 51.9235 67.2969 51.9235C65.398 51.9235 63.8414 50.3859 63.8414 48.4807C63.8414 46.5761 65.398 45.0361 67.2969 45.0361C69.2038 45.0361 70.7538 46.5761 70.7538 48.4807ZM192.278 51.9472C187.818 51.9193 185.749 48.2267 185.239 47.0355C180.147 34.4396 195.077 22.7329 195.077 22.7329H203.726C203.726 22.7329 190.559 33.2236 192.38 42.5182C193.609 47.0319 197.535 45.8462 200.099 42.2909C203.214 37.973 206.023 29.4526 203.907 29.2222C201.941 29.0077 199.331 33.24 199.331 33.24L199.316 33.2272L197.486 30.4493C198.909 28.6157 202.953 23.8256 207.452 22.3269C208.133 22.1166 212.216 21.0501 212.216 27.0514C212.216 33.4721 205.032 52.0274 192.278 51.9472ZM125.557 45.5496C126.594 44.9048 128.009 43.7878 128.009 43.7878L128.883 46.449C128.364 46.9972 124.148 50.324 121.531 51.5412C118.705 52.8552 116.1 51.1237 115.744 49.0058C115.337 46.5809 116.595 43.4086 116.595 43.4086C116.595 43.4086 112.087 48.522 107.497 51.0125C106.222 51.7047 105.249 51.9825 104.47 51.9636C101.379 51.8889 100.41 48.9079 100.748 47.3126C101.152 45.4092 105.335 32.5824 105.862 30.4748C105.914 30.2663 105.707 30.0214 105.426 30.0986C104.158 30.448 100.834 32.6049 100.834 32.6049V29.0411C100.834 29.0411 109.975 22.8599 112.389 22.1774C114.621 21.5472 116.529 22.8167 115.968 25.3443C115.711 27.0964 110.267 41.9233 109.926 43.7173C109.859 44.0752 110.233 44.1032 110.337 44.0716C112.112 43.5319 115.385 40.7686 117.888 36.8286C120.229 33.1482 121.832 28.4753 123.773 22.7092H132.111C132.111 22.7092 125.808 41.9609 125.097 45.1534C125.019 45.5028 125.378 45.6614 125.557 45.5496ZM92.618 27.3279C89.6921 29.5559 87.4251 30.6668 87.4251 30.6668C87.4251 30.6668 88.2343 28.7737 88.8854 27.6804C90.5701 24.852 98.7286 13.9505 105.532 11.9274C105.797 11.849 105.992 12.0392 105.985 12.3078C105.921 14.6853 97.2848 23.7739 92.618 27.3279ZM112.224 5.94788C106.032 3.79894 84.1001 10.7222 76.9193 34.8705C76.0381 35.1136 71.8204 36.1935 71.8204 36.1935L69.9843 41.1387L76.508 39.1526C76.508 39.1526 75.7934 51.5613 86.7448 51.9235C95.356 51.6051 99.9673 39.0766 97.2848 31.0248C96.7405 31.291 89.7146 34.2579 89.7146 34.2579C89.7146 34.2579 91.1193 42.3991 88.0543 44.2873C87.5801 44.5791 86.9589 44.5402 86.5587 43.9859C85.6684 42.7522 85.1003 39.5567 86.098 35.3032C101.866 27.1395 112.629 12.7703 113.285 7.82578C113.454 6.55379 112.443 6.02385 112.224 5.94788ZM144.289 44.3293C143.144 45.1412 141.121 45.5563 140.733 41.9682C140.175 36.8104 143.759 30.5909 144.871 29.1451C146.77 26.6764 149.42 26.4893 149.474 30.2305C149.537 34.535 147.147 42.3013 144.289 44.3293ZM148.745 8.84677C143.018 8.92152 140.098 11.8946 140.098 11.8946L140.247 15.3878C140.247 15.3878 143.893 11.7688 148.042 13.2948C150.861 14.3322 153.66 17.9056 151.744 25.8232C150.021 21.4232 143.346 20.4514 137.979 26.2C133.694 30.789 127.905 46.1008 136.451 50.8144C147.076 56.6742 156.4 39.5124 158.55 27.8068C159.905 20.4308 160.713 8.69058 148.745 8.84677ZM24.0164 50.214C20.2886 46.3439 23.8095 33.2582 24.5381 30.4395C24.6064 30.177 24.4063 29.9217 24.1335 29.9217C23.9749 29.9217 23.8309 30.0086 23.7601 30.1502C22.1894 33.305 13.6777 51.9235 6.14104 51.9235C6.0013 51.9235 5.85424 51.9235 5.71084 51.9132C-1.57012 51.2356 -0.617585 41.2171 1.64627 35.147H13.3848C12.428 37.7694 12.0972 39.4206 12.1308 40.2799C12.1546 40.9029 12.6757 41.2201 13.1804 40.9564C14.3953 40.3237 16.3998 37.7068 18.1425 34.6918C21.3211 29.1912 25.4015 20.9097 32.4482 0H45.3387C41.5176 11.6478 38.4099 22.1829 36.7153 34.2306C36.6305 34.8316 37.3237 35.3348 37.8741 34.8195C41.5524 31.3754 54.9525 2.50811 55.7946 0H68.6992C68.6992 0 55.9044 35.2947 56.9766 41.1685C57.1224 41.9664 57.9511 42.1791 58.6253 41.4122C59.4101 40.5206 60.6298 38.9381 61.3493 38.1055L63.3434 40.0885C59.6737 44.6003 53.7126 52.764 47.7582 51.7819C46.8356 51.6294 45.9428 51.1061 45.2747 50.4285C39.078 45.0646 47.724 27.1499 49.2392 22.9419C49.5748 22.0103 49.9043 21.1588 50.1142 20.6283C50.2216 20.3566 50.0208 20.0631 49.7279 20.0607C49.5638 20.0588 49.4155 20.1506 49.3466 20.2983C49.0482 20.9315 48.2439 22.6375 47.9705 23.2112C44.133 31.0843 35.3271 51.9235 28.0938 51.9235C26.9594 51.9235 25.2636 51.5011 24.0164 50.214ZM170.566 32.8176C172.78 28.902 176.392 25.8439 178.141 27.066C179.899 28.2796 176.343 34.4712 167.993 41.0603C167.658 40.4811 168.336 36.7448 170.566 32.8176ZM168.506 44.6034C184 36.4822 187.72 26.1927 182.946 23.3145C175.904 19.3843 156.594 26.4127 158.782 45.6456C157.825 46.2169 155.922 47.244 155.922 47.244L157.208 51.1341C157.208 51.1341 159.9 49.5284 160.628 49.0295C162.902 50.8557 164.072 51.8603 167.585 51.9284C175.046 52.0827 181.486 43.8394 181.486 43.8394L179.589 40.9387C179.589 40.9387 171.389 48.7791 168.506 44.6034Z" fill="white"/>
</svg>
