<svg width="187" height="39" viewBox="0 0 187 39" fill="none" xmlns="http://www.w3.org/2000/svg">
<path d="M77.6882 29.1542H61.633L82.13 2.74314C82.5767 2.16321 82.4526 1.31747 81.8571 0.882523C81.6337 0.713376 81.336 0.616719 81.0382 0.616719H51.3845C48.7789 0.616719 46.6448 2.69481 46.6448 5.23202C46.6448 7.76922 48.7789 9.84731 51.3845 9.84731H64.71L44.1385 36.2826C43.6671 36.8625 43.7911 37.6841 44.3867 38.1432C44.6348 38.3365 44.9326 38.4332 45.2304 38.409H77.6634C80.2689 38.2882 82.2789 36.1134 82.1548 33.5521C82.0308 31.184 80.0952 29.2992 77.6634 29.1784V29.1542H77.6882ZM181.315 0.616719C178.709 0.616719 176.575 2.69481 176.575 5.23202V20.7211L150.966 0.93085C150.396 0.471736 149.527 0.544228 149.056 1.12416C148.857 1.3658 148.758 1.65577 148.758 1.9699V33.7937C148.758 36.3309 150.892 38.409 153.497 38.409C156.103 38.409 158.237 36.3551 158.237 33.7937V18.3047L183.846 38.119C184.442 38.5782 185.31 38.4815 185.782 37.9016C185.98 37.6599 186.079 37.37 186.079 37.08V5.23202C186.054 2.67065 183.945 0.616719 181.315 0.616719ZM113.546 30.0241C102.702 30.0241 94.6119 24.4665 94.6119 19.4887C94.6119 14.5109 102.726 8.95325 113.546 8.95325C124.39 8.95325 132.479 14.5109 132.479 19.4887C132.479 24.4665 124.414 30.0241 113.546 30.0241ZM113.546 -0.277344C97.8626 -0.277344 85.1326 8.56663 85.1326 19.4887C85.1326 30.4108 97.8626 39.2547 113.546 39.2547C129.229 39.2547 141.959 30.4108 141.959 19.4887C141.959 8.56663 129.229 -0.277344 113.546 -0.277344ZM20.2667 30.0483C14.2863 30.0483 9.42262 25.3364 9.42262 19.5129C9.42262 13.6894 14.2615 8.95325 20.2419 8.95325C26.2222 8.95325 31.086 13.6652 31.086 19.4887V19.5129C31.086 25.3122 26.2471 30.0241 20.2667 30.0483ZM20.2667 -0.277344C9.0504 -0.277344 -0.0318258 8.56663 -0.0566406 19.4887C-0.0566406 30.4108 9.02558 39.2547 20.2419 39.2789C31.4582 39.2789 40.5404 30.4349 40.5652 19.5129V19.4887C40.5404 8.56663 31.4582 -0.277344 20.2667 -0.277344Z" fill="white"/>
</svg>
