<svg width="501" height="500" viewBox="0 0 501 500" fill="none" xmlns="http://www.w3.org/2000/svg">
<rect x="500.296" y="0.5" width="499" height="499" rx="249.5" transform="rotate(90 500.296 0.5)" stroke="url(#paint0_linear_1552_106)" stroke-dasharray="6 6"/>
<rect x="357.919" y="19.6719" width="8" height="8" rx="4" transform="rotate(114.04 357.919 19.6719)" fill="url(#paint1_linear_1552_106)"/>
<rect x="154.64" y="475.389" width="8" height="8" rx="4" transform="rotate(114.04 154.64 475.389)" fill="url(#paint2_linear_1552_106)"/>
<rect x="483.984" y="350.742" width="8" height="8" rx="4" transform="rotate(114.04 483.984 350.742)" fill="url(#paint3_linear_1552_106)"/>
<rect x="27.3525" y="147.059" width="8" height="8" rx="4" transform="rotate(114.04 27.3525 147.059)" fill="url(#paint4_linear_1552_106)"/>
<defs>
<linearGradient id="paint0_linear_1552_106" x1="472.486" y1="8.75188e-06" x2="704.236" y2="625.864" gradientUnits="userSpaceOnUse">
<stop stop-color="#6F543D"/>
<stop offset="0.3613" stop-color="#A68457"/>
<stop offset="0.5796" stop-color="#C39D64"/>
<stop offset="0.6584" stop-color="#BB9661"/>
<stop offset="0.7779" stop-color="#A68457"/>
<stop offset="0.9227" stop-color="#846747"/>
<stop offset="1" stop-color="#6F543D"/>
</linearGradient>
<linearGradient id="paint1_linear_1552_106" x1="361.919" y1="19.6719" x2="361.919" y2="27.6719" gradientUnits="userSpaceOnUse">
<stop stop-color="#F9F9F9"/>
<stop offset="1" stop-color="#8F8F8F"/>
</linearGradient>
<linearGradient id="paint2_linear_1552_106" x1="158.64" y1="475.389" x2="158.64" y2="483.389" gradientUnits="userSpaceOnUse">
<stop stop-color="#F9F9F9"/>
<stop offset="1" stop-color="#8F8F8F"/>
</linearGradient>
<linearGradient id="paint3_linear_1552_106" x1="487.984" y1="350.742" x2="487.984" y2="358.742" gradientUnits="userSpaceOnUse">
<stop stop-color="#F9F9F9"/>
<stop offset="1" stop-color="#8F8F8F"/>
</linearGradient>
<linearGradient id="paint4_linear_1552_106" x1="31.3525" y1="147.059" x2="31.3525" y2="155.059" gradientUnits="userSpaceOnUse">
<stop stop-color="#F9F9F9"/>
<stop offset="1" stop-color="#8F8F8F"/>
</linearGradient>
</defs>
</svg>
