<svg width="96" height="196" viewBox="0 0 96 196" fill="none" xmlns="http://www.w3.org/2000/svg">
<path d="M66.575 0.802734C66.575 0.802734 66.1437 96.5646 66.1437 100.19C66.1437 111.494 54.7146 120.878 42.8542 117.466C34.8754 115.12 29.4843 107.655 29.4843 99.3372V0.802734H0.803711C0.803711 21.2774 0.803658 65.426 1.0193 80.5687C1.0193 89.9529 1.0193 96.5646 1.0193 97.8442C1.0193 123.864 22.1524 144.979 48.0296 144.979C54.2833 144.979 60.5369 143.699 66.1437 141.353V149.884C66.1437 159.908 57.9492 167.799 47.814 168.013H46.0888V195.099H47.814C73.2599 195.099 94.8242 174.624 95.0399 150.311C95.0399 150.097 95.0399 149.884 95.0399 149.884V0.802734H66.575Z" fill="url(#paint0_linear_22_2919)"/>
<defs>
<linearGradient id="paint0_linear_22_2919" x1="-881.753" y1="-256.694" x2="207.015" y2="157.682" gradientUnits="userSpaceOnUse">
<stop stop-color="#6F543D"/>
<stop offset="0.3613" stop-color="#A68457"/>
<stop offset="0.5796" stop-color="#C39D64"/>
<stop offset="0.6584" stop-color="#BB9661"/>
<stop offset="0.7779" stop-color="#A68457"/>
<stop offset="0.9227" stop-color="#846747"/>
<stop offset="1" stop-color="#6F543D"/>
</linearGradient>
</defs>
</svg>
