<svg width="40" height="58" viewBox="0 0 40 58" fill="none" xmlns="http://www.w3.org/2000/svg">
<path d="M11.781 58C8.31274 52.1247 7.65112 48.1314 9.68746 45.2452C10.1252 46.2107 10.4505 47.2316 11.0093 48.1022C12.3883 50.2528 15.2298 50.1791 16.2269 47.8417C16.7842 46.5362 16.8762 44.9117 16.7559 43.4668C16.6378 42.0496 15.9573 40.6857 15.5725 39.2845C14.9943 37.1821 15.4102 35.2468 16.8712 33.653C18.4836 31.8942 20.3467 30.3121 19.6249 27.4018C21.3229 28.8103 21.9439 30.4274 21.5084 32.3095C21.2352 33.4931 20.5446 34.5812 20.2945 35.7663C20.0525 36.915 19.7996 38.2621 20.1895 39.2743C20.4619 39.9822 21.8033 40.6463 22.6758 40.6579C23.8339 40.6725 24.4035 39.5991 24.3824 38.3774C24.3745 37.9425 24.381 37.5076 24.381 36.7734C25.0441 37.2448 25.66 37.5214 26.0514 37.9885C27.458 39.6669 27.4029 41.5701 26.7101 43.5281C26.3572 44.5257 25.7513 45.5225 25.7383 46.5267C25.7245 47.5272 26.026 49.0057 26.7043 49.4187C27.5036 49.904 28.8696 49.5559 29.9646 49.3947C30.4784 49.3188 30.9328 48.8327 31.5459 48.4511C32.0241 52.016 30.6806 54.7657 28.7602 57.6512C34.0902 54.8467 37.7071 50.3185 38.7238 44.8307C39.3941 41.2104 39.6318 37.5068 39.992 33.8339C40.0528 33.2129 39.7535 32.5561 39.5847 31.7403C38.8513 32.8488 38.3911 33.7617 37.7346 34.4973C35.8635 36.5917 33.5525 36.1517 32.5887 33.4756C32.2437 32.5175 32.077 31.3725 32.2372 30.3792C32.5191 28.6242 33.0923 26.9143 33.5844 25.1972C34.0916 23.4268 34.7989 21.7002 35.1482 19.9013C35.7758 16.667 33.8735 13.1817 31.1031 12.2454C31.1031 12.8168 31.14 13.3692 31.0958 13.9144C30.961 15.5833 29.7632 17.0815 28.4377 17.1501C26.7586 17.2377 26.0622 16.0117 25.7108 14.6813C25.0093 12.0294 23.5259 9.93352 21.5424 8.13319C19.4655 6.24895 18.8082 3.99617 19.767 1.30773C19.8996 0.934095 19.9257 0.522509 20.0257 0C16.769 1.99152 15.4798 6.27303 16.982 9.6657C17.3886 10.5852 17.8872 11.4711 18.2162 12.4169C18.8278 14.1742 18.1698 15.7497 16.6023 16.5211C15.1088 17.2559 13.3862 16.7181 12.4086 15.2104C12.1629 14.8317 11.9209 14.4515 11.6767 14.072C11.51 14.1121 11.3433 14.1515 11.1759 14.1917C11.1759 15.1185 11.1672 16.046 11.1781 16.9735C11.2013 18.8753 11.3281 20.7814 11.231 22.6766C11.1665 23.9428 10.473 24.9308 9.05554 25.0221C7.57575 25.1184 6.80904 24.2806 6.53511 22.8853C6.36264 22.0074 6.26336 21.0981 5.95755 20.2669C5.57419 19.2241 5.01402 18.247 4.52486 17.2311C4.24152 19.157 4.21035 20.9084 3.70163 22.5066C2.53345 26.1766 3.03927 29.3787 5.42781 32.4357C6.31553 33.572 6.84528 35.0884 7.20399 36.5165C7.53227 37.8243 7.01195 39.0941 5.74087 39.8078C4.52124 40.493 3.36175 40.1705 2.3175 39.3539C1.62036 38.808 0.958005 38.2162 0.293477 37.6557C-1.51821 45.7444 5.39447 57.2535 11.781 58Z" fill="black"/>
</svg>
