<svg width="309" height="44" viewBox="0 0 309 44" fill="none" xmlns="http://www.w3.org/2000/svg">
<path d="M111.068 0.298701L100.137 14.9713H90.2759L101.206 0.298701L90.3577 0.298701L90.3877 0.258057L53.1092 0.258057L43.0406 13.8809L59.0929 13.8809L37.205 43.2619L69.1998 43.2619L80.1303 28.5889H89.9917L79.0611 43.2619H111.088L143.094 0.298287L111.068 0.298287V0.298701ZM266.268 43.2319H308.275L308.302 38.4691H269.786L266.268 43.2319ZM308.302 29.6087L276.313 29.6087L272.795 34.371H308.275L308.302 29.6087ZM42.7091 29.6087L0.701704 29.6087L0.674561 34.371H39.1909L42.7091 29.6087ZM0.674561 43.2319H32.6644L36.1822 38.4691H0.701704L0.674561 43.2319ZM199.42 31.7862C203.444 26.3838 202.95 22.6757 199.264 21.1091C203.782 19.1589 208.055 15.9944 211.127 11.8704C216.795 4.38982 213.53 0.330313 206.067 0.362335L150 0.362335L117.993 43.326H177.222C184.597 43.326 193.919 39.2985 199.42 31.7862ZM169.613 30.2196C168.541 31.6581 166.289 33.0967 164.852 33.0967H157.608L161.895 27.3424H169.138C170.575 27.3428 170.685 28.7814 169.613 30.2196ZM178.987 13.4371C177.915 14.8757 175.638 16.3459 174.202 16.3459H170.087L174.398 10.56L178.512 10.56C179.949 10.56 180.059 11.9985 178.987 13.4371ZM238.298 29.6444L260.159 0.298701L228.164 0.298701L196.158 43.2623H261.645L271.789 29.6444H238.298Z" fill="#F1CD31"/>
</svg>
