<svg width="309" height="44" viewBox="0 0 309 44" fill="none" xmlns="http://www.w3.org/2000/svg">
<path d="M111.311 0.379511L100.381 15.0521H90.5193L101.45 0.379511L90.6011 0.379511L90.6311 0.338867L53.3526 0.338867L43.284 13.9617H59.3363L37.4484 43.3427H69.4432L80.3737 28.6697H90.2351L79.3045 43.3427H111.331L143.338 0.379098L111.311 0.379098V0.379511ZM266.511 43.3128H308.518L308.545 38.55H270.029L266.511 43.3128ZM308.546 29.6895H276.556L273.038 34.4519H308.519L308.546 29.6895ZM42.9526 29.6895H0.945112L0.917969 34.4519H39.4343L42.9526 29.6895ZM0.917969 43.3128H32.9078L36.4256 38.55H0.945112L0.917969 43.3128ZM199.663 31.867C203.688 26.4646 203.194 22.7565 199.508 21.1899C204.025 19.2398 208.299 16.0752 211.371 11.9513C217.039 4.47063 213.773 0.411123 206.311 0.443146L150.243 0.443146L118.237 43.4068H177.465C184.84 43.4068 194.162 39.3793 199.663 31.867ZM169.857 30.3004C168.785 31.7389 166.532 33.1775 165.095 33.1775H157.852L162.138 27.4232H169.382C170.819 27.4237 170.928 28.8622 169.857 30.3004ZM179.23 13.5179C178.158 14.9565 175.882 16.4267 174.445 16.4267H170.331L174.641 10.6408H178.756C180.192 10.6408 180.302 12.0794 179.23 13.5179ZM238.541 29.7252L260.403 0.379511L228.408 0.379511L196.402 43.3431L261.888 43.3431L272.033 29.7252H238.541Z" fill="#EE3928"/>
</svg>
