<svg width="314" height="310" viewBox="0 0 314 310" fill="none" xmlns="http://www.w3.org/2000/svg">
<mask id="mask0_2_6578" style="mask-type:luminance" maskUnits="userSpaceOnUse" x="5" y="0" width="304" height="309">
<path d="M192.168 0.875524L5.60174 108.02L121.94 308.473L308.507 201.328L192.168 0.875524Z" fill="white"/>
</mask>
<g mask="url(#mask0_2_6578)">
<path d="M248.874 98.97C278.795 150.529 261.843 215.993 211.01 245.189C160.176 274.385 94.7116 256.256 64.7903 204.697C34.869 153.138 51.8213 87.6737 102.655 58.4776C153.488 29.2821 218.953 47.4123 248.874 98.97Z" fill="#EE3A26"/>
</g>
<mask id="mask1_2_6578" style="mask-type:luminance" maskUnits="userSpaceOnUse" x="5" y="0" width="304" height="309">
<path d="M192.168 0.875524L5.60174 108.02L121.94 308.473L308.507 201.328L192.168 0.875524Z" fill="white"/>
</mask>
<g mask="url(#mask1_2_6578)">
<path d="M117.376 78.3651L111.777 72.5171L113.607 71.6488L116.864 75.2036C116.939 75.2763 117.022 75.367 117.111 75.4762C117.201 75.5865 117.294 75.6982 117.388 75.8088C117.483 75.9204 117.56 76.0217 117.618 76.1082L117.688 76.0749C117.666 75.9956 117.641 75.9025 117.614 75.7949C117.587 75.6889 117.559 75.5819 117.533 75.4743C117.506 75.3683 117.483 75.267 117.466 75.1718C117.448 75.0772 117.433 74.9992 117.421 74.9394L116.581 70.2381L118.858 69.1577L122.035 72.7512C122.094 72.8221 122.167 72.911 122.255 73.0171C122.343 73.1242 122.434 73.2355 122.527 73.3527C122.62 73.4698 122.697 73.5748 122.759 73.6693L122.829 73.6359C122.806 73.5567 122.784 73.4634 122.762 73.3588C122.74 73.2542 122.719 73.1484 122.701 73.0404C122.681 72.9346 122.664 72.834 122.646 72.7394C122.628 72.6448 122.614 72.5582 122.601 72.4816L121.85 67.7374L123.511 66.9497L124.595 74.9402L122.527 75.9213L119.133 72.134C119.059 72.0456 118.975 71.9495 118.884 71.8442C118.792 71.7395 118.707 71.6333 118.627 71.5268C118.546 71.4209 118.479 71.3267 118.424 71.2454L118.374 71.2685C118.4 71.3724 118.428 71.4955 118.459 71.6369C118.491 71.7793 118.521 71.9159 118.547 72.0473C118.574 72.1787 118.597 72.2897 118.616 72.3794L119.495 77.3604L117.376 78.3651Z" fill="black"/>
</g>
<mask id="mask2_2_6578" style="mask-type:luminance" maskUnits="userSpaceOnUse" x="5" y="0" width="304" height="309">
<path d="M192.168 0.875524L5.60174 108.02L121.94 308.473L308.507 201.328L192.168 0.875524Z" fill="white"/>
</mask>
<g mask="url(#mask2_2_6578)">
<path d="M126.396 74.1045L127.54 65.6875L129.572 65.0335L135.571 71.1496L133.602 71.7842L132.536 70.6743L128.44 71.9938L128.25 73.5072L126.396 74.1045ZM128.63 70.3742L131.406 69.48L130.086 68.0656C130.035 68.0041 129.954 67.914 129.844 67.7915C129.735 67.6717 129.624 67.5471 129.516 67.418C129.406 67.2885 129.308 67.1718 129.219 67.0682C129.13 66.9645 129.074 66.9006 129.05 66.8766L128.967 66.9035C128.958 67.0624 128.945 67.2424 128.927 67.4427C128.909 67.644 128.894 67.8393 128.884 68.0251C128.873 68.2126 128.859 68.3631 128.844 68.4776L128.63 70.3742Z" fill="black"/>
</g>
<mask id="mask3_2_6578" style="mask-type:luminance" maskUnits="userSpaceOnUse" x="5" y="0" width="304" height="309">
<path d="M192.168 0.875524L5.60174 108.02L121.94 308.473L308.507 201.328L192.168 0.875524Z" fill="white"/>
</mask>
<g mask="url(#mask3_2_6578)">
<path d="M138.242 70.587L137.568 67.5887L132.932 63.8906L135.151 63.4221L138.162 65.916L138.269 65.8937L139.957 62.4082L142.069 61.9619L139.431 67.1957L140.106 70.1939L138.242 70.587Z" fill="black"/>
</g>
<mask id="mask4_2_6578" style="mask-type:luminance" maskUnits="userSpaceOnUse" x="5" y="0" width="304" height="309">
<path d="M192.168 0.875524L5.60174 108.02L121.94 308.473L308.507 201.328L192.168 0.875524Z" fill="white"/>
</mask>
<g mask="url(#mask4_2_6578)">
<path d="M149.828 68.7659L149.341 62.7768L146.006 62.9954L145.874 61.3782L154.428 60.8195L154.559 62.4356L151.235 62.653L151.722 68.6428L149.828 68.7659Z" fill="black"/>
</g>
<mask id="mask5_2_6578" style="mask-type:luminance" maskUnits="userSpaceOnUse" x="5" y="0" width="304" height="309">
<path d="M192.168 0.875524L5.60174 108.02L121.94 308.473L308.507 201.328L192.168 0.875524Z" fill="white"/>
</mask>
<g mask="url(#mask5_2_6578)">
<path d="M160.459 68.6959C159.45 68.6422 158.581 68.4428 157.851 68.0934C157.122 67.745 156.569 67.2669 156.192 66.6578C155.815 66.0504 155.64 65.3279 155.669 64.4925C155.698 63.6576 155.922 62.9559 156.341 62.389C156.759 61.8226 157.344 61.4044 158.094 61.1364C158.844 60.8674 159.725 60.7592 160.733 60.8118C161.75 60.8651 162.621 61.0633 163.346 61.4081C164.072 61.7539 164.624 62.2305 165.001 62.838C165.379 63.4465 165.552 64.1685 165.523 65.0033C165.494 65.8388 165.27 66.5405 164.852 67.1068C164.435 67.6742 163.852 68.094 163.105 68.3655C162.357 68.6377 161.475 68.7481 160.459 68.6959ZM160.512 67.1762C160.946 67.1989 161.345 67.17 161.71 67.0891C162.075 67.0077 162.393 66.878 162.664 66.6985C162.936 66.5212 163.148 66.2893 163.302 66.0044C163.456 65.7206 163.54 65.3935 163.553 65.0239L163.561 64.7691C163.575 64.3989 163.514 64.0659 163.38 63.7701C163.247 63.4743 163.051 63.2243 162.792 63.0174C162.534 62.8116 162.226 62.6498 161.868 62.5316C161.511 62.4133 161.115 62.3423 160.681 62.3196C160.246 62.2975 159.847 62.3274 159.482 62.4073C159.119 62.4892 158.801 62.6188 158.529 62.7973C158.257 62.9757 158.044 63.2055 157.89 63.486C157.737 63.7666 157.653 64.092 157.641 64.4616L157.631 64.717C157.619 65.0866 157.679 65.4202 157.813 65.7197C157.946 66.0199 158.142 66.2726 158.4 66.4784C158.659 66.6842 158.967 66.846 159.323 66.9648C159.681 67.0831 160.077 67.1541 160.512 67.1762Z" fill="black"/>
</g>
<mask id="mask6_2_6578" style="mask-type:luminance" maskUnits="userSpaceOnUse" x="5" y="0" width="304" height="309">
<path d="M192.168 0.875524L5.60174 108.02L121.94 308.473L308.507 201.328L192.168 0.875524Z" fill="white"/>
</mask>
<g mask="url(#mask6_2_6578)">
<path d="M171.389 69.8868C170.393 69.7032 169.556 69.3891 168.877 68.9483C168.198 68.5075 167.712 67.9614 167.416 67.31C167.121 66.6586 167.043 65.9226 167.181 65.099C167.319 64.278 167.633 63.6138 168.122 63.1085C168.611 62.6032 169.246 62.2665 170.028 62.1003C170.808 61.9338 171.696 61.9426 172.691 62.1278C173.694 62.3132 174.533 62.6245 175.209 63.0617C175.884 63.4989 176.37 64.0424 176.666 64.6938C176.961 65.3452 177.039 66.0811 176.901 66.9037C176.762 67.7263 176.449 68.39 175.96 68.8953C175.47 69.4011 174.837 69.74 174.059 69.9107C173.281 70.0815 172.391 70.0739 171.389 69.8868ZM171.639 68.3922C172.068 68.4723 172.469 68.4956 172.841 68.4633C173.214 68.4316 173.547 68.3448 173.84 68.2046C174.133 68.0639 174.375 67.8623 174.565 67.6014C174.754 67.3406 174.88 67.0287 174.942 66.6641L174.983 66.4131C175.044 66.0491 175.029 65.7122 174.934 65.4026C174.841 65.0924 174.678 64.8192 174.448 64.5807C174.219 64.3427 173.935 64.1421 173.594 63.9777C173.254 63.8133 172.87 63.6911 172.442 63.6121C172.013 63.5321 171.613 63.5082 171.241 63.541C170.868 63.5722 170.535 63.659 170.241 63.7997C169.948 63.9405 169.708 64.1399 169.517 64.397C169.328 64.6545 169.203 64.9648 169.142 65.3288L169.1 65.5803C169.039 65.9444 169.055 66.2823 169.148 66.5968C169.242 66.9097 169.403 67.1852 169.634 67.4236C169.864 67.661 170.148 67.8617 170.488 68.0261C170.827 68.191 171.211 68.3122 171.639 68.3922Z" fill="black"/>
</g>
<mask id="mask7_2_6578" style="mask-type:luminance" maskUnits="userSpaceOnUse" x="5" y="0" width="304" height="309">
<path d="M192.168 0.875524L5.60174 108.02L121.94 308.473L308.507 201.328L192.168 0.875524Z" fill="white"/>
</mask>
<g mask="url(#mask7_2_6578)">
<path d="M180.966 71.8683L183.464 64.7114L185.269 65.3743L184.309 68.1235L188.951 69.8275L189.912 67.0777L191.717 67.74L189.218 74.8958L187.413 74.2346L188.421 71.3487L183.778 69.6453L182.772 72.5306L180.966 71.8683Z" fill="black"/>
</g>
<mask id="mask8_2_6578" style="mask-type:luminance" maskUnits="userSpaceOnUse" x="5" y="0" width="304" height="309">
<path d="M192.168 0.875524L5.60174 108.02L121.94 308.473L308.507 201.328L192.168 0.875524Z" fill="white"/>
</mask>
<g mask="url(#mask8_2_6578)">
<path d="M194.937 77.7782C194.035 77.3084 193.322 76.7646 192.799 76.1453C192.276 75.5259 191.968 74.8626 191.875 74.1569C191.781 73.4513 191.921 72.727 192.294 71.9863C192.666 71.2456 193.162 70.7074 193.78 70.3706C194.397 70.0344 195.105 69.9023 195.904 69.9744C196.702 70.0454 197.553 70.3161 198.454 70.7849C199.363 71.2566 200.078 71.8003 200.599 72.4148C201.121 73.0294 201.428 73.6889 201.522 74.3946C201.615 75.102 201.475 75.8246 201.102 76.5653C200.729 77.3066 200.234 77.8458 199.617 78.182C198.999 78.5188 198.292 78.653 197.495 78.5857C196.698 78.5194 195.845 78.2499 194.937 77.7782ZM195.615 76.4301C196.003 76.6322 196.381 76.7719 196.748 76.8519C197.116 76.9308 197.46 76.9479 197.783 76.8998C198.105 76.853 198.396 76.7334 198.655 76.5402C198.914 76.348 199.125 76.0889 199.29 75.76L199.404 75.5345C199.569 75.2067 199.651 74.8811 199.652 74.5586C199.652 74.2367 199.576 73.9279 199.425 73.6343C199.274 73.3407 199.059 73.0655 198.781 72.8097C198.502 72.5534 198.17 72.3247 197.781 72.1231C197.393 71.9199 197.016 71.7796 196.649 71.7008C196.281 71.6219 195.935 71.6059 195.614 71.6528C195.291 71.7003 195.001 71.8182 194.744 72.0075C194.487 72.1969 194.275 72.455 194.111 72.7822L193.997 73.0088C193.832 73.3366 193.749 73.6628 193.747 73.9886C193.745 74.3143 193.819 74.6243 193.971 74.9179C194.122 75.2125 194.336 75.4867 194.616 75.743C194.892 75.9993 195.226 76.2285 195.615 76.4301Z" fill="black"/>
</g>
<mask id="mask9_2_6578" style="mask-type:luminance" maskUnits="userSpaceOnUse" x="5" y="0" width="304" height="309">
<path d="M192.168 0.875524L5.60174 108.02L121.94 308.473L308.507 201.328L192.168 0.875524Z" fill="white"/>
</mask>
<g mask="url(#mask9_2_6578)">
<path d="M202.587 82.0434L205.869 77.078L203.07 75.1856L203.956 73.8456L211.134 78.7L210.248 80.04L207.458 78.1536L204.175 83.118L202.587 82.0434Z" fill="black"/>
</g>
<mask id="mask10_2_6578" style="mask-type:luminance" maskUnits="userSpaceOnUse" x="5" y="0" width="304" height="309">
<path d="M192.168 0.875524L5.60174 108.02L121.94 308.473L308.507 201.328L192.168 0.875524Z" fill="white"/>
</mask>
<g mask="url(#mask10_2_6578)">
<path d="M214.181 91.0319L217.842 83.9658L219.264 85.4466L216.989 89.6025C216.947 89.6951 216.889 89.8008 216.814 89.9187C216.741 90.0377 216.666 90.1583 216.592 90.2815C216.518 90.4048 216.449 90.5074 216.387 90.5892L216.44 90.6461C216.509 90.6011 216.589 90.5496 216.68 90.4916C216.772 90.4347 216.863 90.3767 216.954 90.3187C217.047 90.2611 217.134 90.2098 217.218 90.1646C217.302 90.1204 217.37 90.083 217.422 90.0529L221.573 87.8523L223.343 89.6959L221.007 93.7867C220.959 93.8645 220.899 93.9612 220.828 94.0763C220.756 94.1924 220.681 94.3109 220.602 94.4344C220.522 94.558 220.449 94.6629 220.38 94.7499L220.434 94.8062C220.502 94.7619 220.581 94.712 220.674 94.6604C220.765 94.6078 220.858 94.5572 220.953 94.5071C221.046 94.4576 221.135 94.4095 221.219 94.3653C221.303 94.32 221.379 94.2806 221.446 94.2459L225.667 92.1181L226.957 93.4616L219.788 96.8748L218.182 95.2002L220.63 90.8449C220.689 90.7472 220.752 90.6395 220.821 90.5208C220.89 90.4032 220.961 90.2898 221.035 90.1821C221.108 90.0745 221.174 89.9823 221.233 89.9056L221.194 89.8651C221.105 89.9203 220.999 89.9838 220.876 90.0559C220.752 90.1285 220.635 90.1975 220.52 90.2621C220.404 90.3273 220.306 90.3819 220.228 90.4268L215.826 92.7464L214.181 91.0319Z" fill="black"/>
</g>
<mask id="mask11_2_6578" style="mask-type:luminance" maskUnits="userSpaceOnUse" x="5" y="0" width="304" height="309">
<path d="M192.168 0.875524L5.60174 108.02L121.94 308.473L308.507 201.328L192.168 0.875524Z" fill="white"/>
</mask>
<g mask="url(#mask11_2_6578)">
<path d="M221.024 98.2544L229.349 96.8327L230.638 98.5722L226.842 106.112L225.594 104.426L226.289 103.078L223.692 99.5725L222.2 99.8426L221.024 98.2544ZM225.283 99.2696L227.043 101.647L227.944 99.9676C227.985 99.9009 228.043 99.7961 228.122 99.6548C228.2 99.5141 228.281 99.3727 228.367 99.2315C228.453 99.0888 228.531 98.9604 228.599 98.8444C228.668 98.7283 228.71 98.6557 228.725 98.6258L228.672 98.5549C228.519 98.594 228.344 98.6343 228.149 98.6784C227.953 98.7214 227.765 98.765 227.585 98.8099C227.404 98.8554 227.258 98.8877 227.144 98.9071L225.283 99.2696Z" fill="black"/>
</g>
<mask id="mask12_2_6578" style="mask-type:luminance" maskUnits="userSpaceOnUse" x="5" y="0" width="304" height="309">
<path d="M192.168 0.875524L5.60174 108.02L121.94 308.473L308.507 201.328L192.168 0.875524Z" fill="white"/>
</mask>
<g mask="url(#mask12_2_6578)">
<path d="M228.133 108.418L230.733 106.867L232.667 101.336L233.852 103.304L232.509 106.925L232.567 107.02L236.418 107.568L237.545 109.442L231.728 108.521L229.128 110.072L228.133 108.418Z" fill="black"/>
</g>
<mask id="mask13_2_6578" style="mask-type:luminance" maskUnits="userSpaceOnUse" x="5" y="0" width="304" height="309">
<path d="M192.168 0.875524L5.60174 108.02L121.94 308.473L308.507 201.328L192.168 0.875524Z" fill="white"/>
</mask>
<g mask="url(#mask13_2_6578)">
<path d="M233.523 118.813L239.013 116.536L237.693 113.426L239.175 112.812L242.562 120.788L241.08 121.403L239.763 118.302L234.273 120.579L233.523 118.813Z" fill="black"/>
</g>
<mask id="mask14_2_6578" style="mask-type:luminance" maskUnits="userSpaceOnUse" x="5" y="0" width="304" height="309">
<path d="M192.168 0.875524L5.60174 108.02L121.94 308.473L308.507 201.328L192.168 0.875524Z" fill="white"/>
</mask>
<g mask="url(#mask14_2_6578)">
<path d="M236.996 128.883C236.709 127.907 236.607 127.02 236.693 126.221C236.779 125.421 237.045 124.75 237.492 124.208C237.941 123.666 238.563 123.282 239.36 123.057C240.158 122.833 240.893 122.834 241.567 123.06C242.241 123.287 242.829 123.716 243.333 124.35C243.836 124.983 244.232 125.786 244.52 126.762C244.809 127.745 244.911 128.633 244.83 129.428C244.746 130.223 244.48 130.892 244.033 131.434C243.585 131.976 242.962 132.36 242.166 132.585C241.368 132.809 240.632 132.808 239.959 132.582C239.284 132.355 238.695 131.928 238.188 131.299C237.682 130.671 237.284 129.865 236.996 128.883ZM238.445 128.474C238.569 128.894 238.73 129.264 238.927 129.587C239.125 129.909 239.354 130.173 239.613 130.377C239.872 130.582 240.161 130.714 240.48 130.774C240.8 130.835 241.136 130.815 241.489 130.716L241.732 130.648C242.085 130.548 242.379 130.39 242.614 130.174C242.848 129.958 243.018 129.695 243.126 129.387C243.235 129.079 243.285 128.737 243.277 128.361C243.269 127.986 243.204 127.587 243.08 127.168C242.957 126.747 242.796 126.376 242.598 126.055C242.4 125.733 242.171 125.469 241.913 125.265C241.654 125.06 241.366 124.927 241.051 124.866C240.734 124.804 240.4 124.823 240.047 124.923L239.804 124.991C239.451 125.091 239.156 125.249 238.918 125.467C238.68 125.684 238.507 125.947 238.4 126.255C238.29 126.563 238.24 126.905 238.248 127.28C238.256 127.655 238.322 128.053 238.445 128.474Z" fill="black"/>
</g>
<mask id="mask15_2_6578" style="mask-type:luminance" maskUnits="userSpaceOnUse" x="5" y="0" width="304" height="309">
<path d="M192.168 0.875524L5.60174 108.02L121.94 308.473L308.507 201.328L192.168 0.875524Z" fill="white"/>
</mask>
<g mask="url(#mask15_2_6578)">
<path d="M239.323 139.609C239.167 138.606 239.184 137.715 239.375 136.936C239.565 136.158 239.918 135.529 240.435 135.052C240.951 134.575 241.62 134.279 242.442 134.163C243.263 134.046 243.994 134.146 244.634 134.46C245.273 134.774 245.802 135.277 246.219 135.97C246.635 136.663 246.922 137.511 247.079 138.515C247.236 139.525 247.222 140.418 247.034 141.193C246.847 141.967 246.495 142.593 245.979 143.071C245.462 143.548 244.793 143.845 243.972 143.96C243.15 144.075 242.42 143.977 241.779 143.663C241.14 143.35 240.61 142.849 240.191 142.159C239.77 141.47 239.482 140.62 239.323 139.609ZM240.818 139.399C240.886 139.83 240.996 140.22 241.151 140.564C241.304 140.909 241.496 141.2 241.727 141.437C241.957 141.674 242.227 141.843 242.537 141.945C242.847 142.047 243.183 142.073 243.546 142.022L243.797 141.986C244.16 141.935 244.473 141.818 244.735 141.635C244.996 141.452 245.201 141.216 245.348 140.926C245.496 140.636 245.591 140.304 245.633 139.931C245.675 139.559 245.663 139.156 245.596 138.724C245.528 138.292 245.417 137.904 245.263 137.559C245.109 137.214 244.917 136.923 244.687 136.686C244.456 136.449 244.188 136.279 243.882 136.176C243.576 136.073 243.241 136.048 242.878 136.099L242.627 136.135C242.264 136.186 241.949 136.304 241.684 136.487C241.419 136.67 241.213 136.906 241.065 137.198C240.917 137.487 240.823 137.819 240.781 138.191C240.738 138.564 240.751 138.966 240.818 139.399Z" fill="black"/>
</g>
<mask id="mask16_2_6578" style="mask-type:luminance" maskUnits="userSpaceOnUse" x="5" y="0" width="304" height="309">
<path d="M192.168 0.875524L5.60174 108.02L121.94 308.473L308.507 201.328L192.168 0.875524Z" fill="white"/>
</mask>
<g mask="url(#mask16_2_6578)">
<path d="M240.393 149.352L247.981 149.593L247.953 151.513L245.036 151.42L244.964 156.356L247.879 156.448L247.852 158.366L240.263 158.125L240.293 156.207L243.35 156.304L243.424 151.369L240.364 151.272L240.393 149.352Z" fill="black"/>
</g>
<mask id="mask17_2_6578" style="mask-type:luminance" maskUnits="userSpaceOnUse" x="5" y="0" width="304" height="309">
<path d="M192.168 0.875524L5.60174 108.02L121.94 308.473L308.507 201.328L192.168 0.875524Z" fill="white"/>
</mask>
<g mask="url(#mask17_2_6578)">
<path d="M239.246 164.46C239.392 163.459 239.671 162.617 240.083 161.932C240.495 161.248 241.019 160.756 241.655 160.456C242.292 160.156 243.023 160.072 243.845 160.206C244.669 160.339 245.343 160.65 245.864 161.138C246.387 161.626 246.746 162.262 246.943 163.045C247.139 163.829 247.165 164.719 247.02 165.72C246.875 166.729 246.597 167.572 246.19 168.253C245.781 168.934 245.26 169.426 244.624 169.726C243.987 170.026 243.256 170.11 242.433 169.977C241.61 169.842 240.937 169.532 240.414 169.043C239.892 168.555 239.531 167.921 239.329 167.141C239.128 166.361 239.102 165.468 239.246 164.46ZM240.745 164.703C240.683 165.133 240.675 165.536 240.721 165.909C240.769 166.283 240.867 166.617 241.019 166.91C241.17 167.204 241.38 167.445 241.647 167.635C241.914 167.823 242.231 167.948 242.595 168.006L242.846 168.048C243.211 168.107 243.545 168.088 243.851 167.992C244.155 167.895 244.421 167.731 244.648 167.499C244.876 167.268 245.065 166.98 245.216 166.638C245.365 166.297 245.472 165.909 245.534 165.479C245.596 165.048 245.604 164.646 245.556 164.272C245.511 163.898 245.411 163.565 245.26 163.272C245.108 162.977 244.9 162.737 244.637 162.548C244.373 162.359 244.06 162.236 243.694 162.177L243.444 162.135C243.079 162.077 242.743 162.095 242.434 162.191C242.125 162.286 241.858 162.451 241.63 162.682C241.403 162.914 241.214 163.201 241.063 163.544C240.914 163.885 240.808 164.272 240.745 164.703Z" fill="black"/>
</g>
<mask id="mask18_2_6578" style="mask-type:luminance" maskUnits="userSpaceOnUse" x="5" y="0" width="304" height="309">
<path d="M192.168 0.875524L5.60174 108.02L121.94 308.473L308.507 201.328L192.168 0.875524Z" fill="white"/>
</mask>
<g mask="url(#mask18_2_6578)">
<path d="M237.597 173.028L243.374 174.667L244.233 171.431L245.792 171.872L243.591 180.169L242.03 179.726L242.886 176.501L237.109 174.865L237.597 173.028Z" fill="black"/>
</g>
<mask id="mask19_2_6578" style="mask-type:luminance" maskUnits="userSpaceOnUse" x="5" y="0" width="304" height="309">
<path d="M192.168 0.875524L5.60174 108.02L121.94 308.473L308.507 201.328L192.168 0.875524Z" fill="white"/>
</mask>
<g mask="url(#mask19_2_6578)">
<path d="M232.685 186.924L240.59 188.278L239.665 190.082L234.976 189.17C234.874 189.158 234.754 189.134 234.619 189.099C234.482 189.065 234.342 189.031 234.202 188.997C234.06 188.964 233.94 188.93 233.841 188.895L233.806 188.962C233.872 189.014 233.947 189.075 234.032 189.145C234.116 189.215 234.202 189.284 234.288 189.355C234.373 189.425 234.451 189.493 234.521 189.559C234.591 189.625 234.648 189.679 234.695 189.719L238.163 193.014L237.013 195.258L232.365 194.269C232.275 194.246 232.165 194.219 232.031 194.186C231.898 194.152 231.76 194.117 231.617 194.079C231.474 194.04 231.35 194.001 231.245 193.963L231.21 194.031C231.276 194.083 231.348 194.145 231.428 194.216C231.508 194.287 231.588 194.36 231.667 194.434C231.745 194.509 231.819 194.58 231.889 194.647C231.96 194.712 232.023 194.773 232.078 194.827L235.502 198.21L234.663 199.846L229.039 194.041L230.084 192.002L235.019 193.019C235.131 193.046 235.255 193.074 235.39 193.103C235.525 193.132 235.655 193.167 235.781 193.205C235.908 193.242 236.017 193.277 236.109 193.309L236.134 193.26C236.052 193.193 235.958 193.11 235.847 193.015C235.739 192.92 235.633 192.827 235.533 192.736C235.434 192.646 235.349 192.57 235.28 192.509L231.616 189.012L232.685 186.924Z" fill="black"/>
</g>
<mask id="mask20_2_6578" style="mask-type:luminance" maskUnits="userSpaceOnUse" x="5" y="0" width="304" height="309">
<path d="M192.168 0.875524L5.60174 108.02L121.94 308.473L308.507 201.328L192.168 0.875524Z" fill="white"/>
</mask>
<g mask="url(#mask20_2_6578)">
<path d="M227.998 195.778L232.123 203.279L230.911 205.033L222.523 203.698L223.698 201.999L225.201 202.253L227.646 198.718L226.891 197.377L227.998 195.778ZM228.463 200.142L226.807 202.539L228.693 202.888C228.77 202.906 228.888 202.932 229.047 202.963C229.206 202.995 229.367 203.03 229.531 203.069C229.693 203.108 229.841 203.142 229.973 203.173C230.105 203.204 230.188 203.221 230.22 203.227L230.271 203.154C230.183 203.02 230.085 202.867 229.979 202.694C229.874 202.519 229.768 202.354 229.665 202.196C229.563 202.037 229.483 201.907 229.427 201.806L228.463 200.142Z" fill="black"/>
</g>
<mask id="mask21_2_6578" style="mask-type:luminance" maskUnits="userSpaceOnUse" x="5" y="0" width="304" height="309">
<path d="M192.168 0.875524L5.60174 108.02L121.94 308.473L308.507 201.328L192.168 0.875524Z" fill="white"/>
</mask>
<g mask="url(#mask21_2_6578)">
<path d="M220.69 205.673L223.014 207.694L228.887 207.89L227.413 209.609L223.545 209.406L223.474 209.49L224.225 213.329L222.824 214.964L221.777 209.136L219.452 207.116L220.69 205.673Z" fill="black"/>
</g>
<mask id="mask22_2_6578" style="mask-type:luminance" maskUnits="userSpaceOnUse" x="5" y="0" width="304" height="309">
<path d="M192.168 0.875524L5.60174 108.02L121.94 308.473L308.507 201.328L192.168 0.875524Z" fill="white"/>
</mask>
<g mask="url(#mask22_2_6578)">
<path d="M212.508 214.092L216.474 218.649L218.979 216.459L220.05 217.689L213.627 223.304L212.556 222.074L215.053 219.892L211.086 215.335L212.508 214.092Z" fill="black"/>
</g>
<mask id="mask23_2_6578" style="mask-type:luminance" maskUnits="userSpaceOnUse" x="5" y="0" width="304" height="309">
<path d="M192.168 0.875524L5.60174 108.02L121.94 308.473L308.507 201.328L192.168 0.875524Z" fill="white"/>
</mask>
<g mask="url(#mask23_2_6578)">
<path d="M204.047 220.544C204.876 219.977 205.683 219.615 206.468 219.458C207.253 219.3 207.976 219.353 208.637 219.618C209.3 219.883 209.869 220.363 210.346 221.058C210.823 221.752 211.065 222.454 211.074 223.166C211.083 223.878 210.872 224.569 210.439 225.241C210.006 225.91 209.376 226.529 208.547 227.096C207.714 227.667 206.906 228.032 206.126 228.191C205.346 228.35 204.626 228.296 203.964 228.031C203.301 227.766 202.733 227.286 202.255 226.592C201.778 225.898 201.536 225.195 201.527 224.483C201.518 223.771 201.727 223.079 202.155 222.408C202.583 221.736 203.213 221.115 204.047 220.544ZM204.914 221.807C204.558 222.051 204.26 222.315 204.02 222.601C203.782 222.887 203.607 223.184 203.499 223.493C203.392 223.802 203.362 224.117 203.411 224.441C203.46 224.763 203.59 225.079 203.8 225.387L203.946 225.598C204.157 225.906 204.403 226.139 204.686 226.297C204.968 226.457 205.273 226.541 205.601 226.553C205.928 226.563 206.268 226.508 206.621 226.389C206.975 226.268 207.331 226.087 207.687 225.843C208.044 225.599 208.341 225.334 208.581 225.049C208.82 224.762 208.993 224.466 209.101 224.157C209.209 223.848 209.241 223.534 209.194 223.214C209.147 222.893 209.018 222.579 208.807 222.272L208.662 222.06C208.45 221.753 208.203 221.518 207.918 221.357C207.634 221.195 207.328 221.108 207.001 221.097C206.673 221.087 206.333 221.141 205.979 221.261C205.627 221.38 205.271 221.563 204.914 221.807Z" fill="black"/>
</g>
<mask id="mask24_2_6578" style="mask-type:luminance" maskUnits="userSpaceOnUse" x="5" y="0" width="304" height="309">
<path d="M192.168 0.875524L5.60174 108.02L121.94 308.473L308.507 201.328L192.168 0.875524Z" fill="white"/>
</mask>
<g mask="url(#mask24_2_6578)">
<path d="M194.59 226.16C195.486 225.708 196.335 225.455 197.135 225.401C197.936 225.347 198.648 225.494 199.271 225.844C199.894 226.192 200.399 226.741 200.782 227.49C201.167 228.239 201.317 228.966 201.234 229.671C201.15 230.376 200.851 231.032 200.335 231.64C199.818 232.246 199.112 232.776 198.215 233.23C197.312 233.686 196.464 233.941 195.668 233.997C194.872 234.052 194.163 233.905 193.539 233.558C192.916 233.208 192.411 232.659 192.028 231.911C191.644 231.162 191.493 230.435 191.576 229.729C191.66 229.024 191.957 228.367 192.469 227.758C192.981 227.149 193.687 226.616 194.59 226.16ZM195.289 227.523C194.903 227.718 194.572 227.941 194.297 228.192C194.022 228.444 193.811 228.716 193.665 229.006C193.518 229.298 193.447 229.606 193.454 229.933C193.46 230.258 193.55 230.588 193.718 230.919L193.836 231.148C194.006 231.48 194.221 231.743 194.482 231.936C194.742 232.13 195.034 232.254 195.357 232.307C195.682 232.361 196.027 232.351 196.393 232.278C196.76 232.206 197.136 232.072 197.522 231.877C197.908 231.683 198.238 231.459 198.513 231.209C198.788 230.956 198.999 230.685 199.146 230.395C199.293 230.102 199.363 229.795 199.359 229.473C199.354 229.149 199.266 228.823 199.097 228.49L198.98 228.262C198.81 227.931 198.594 227.667 198.331 227.469C198.069 227.272 197.777 227.147 197.453 227.093C197.128 227.039 196.783 227.049 196.418 227.121C196.051 227.194 195.675 227.327 195.289 227.523Z" fill="black"/>
</g>
<mask id="mask25_2_6578" style="mask-type:luminance" maskUnits="userSpaceOnUse" x="5" y="0" width="304" height="309">
<path d="M192.168 0.875524L5.60174 108.02L121.94 308.473L308.507 201.328L192.168 0.875524Z" fill="white"/>
</mask>
<g mask="url(#mask25_2_6578)">
<path d="M185.689 230.355L188 237.659L186.178 238.213L185.291 235.406L180.605 236.831L181.493 239.638L179.672 240.191L177.361 232.887L179.182 232.334L180.114 235.278L184.799 233.853L183.867 230.909L185.689 230.355Z" fill="black"/>
</g>
<mask id="mask26_2_6578" style="mask-type:luminance" maskUnits="userSpaceOnUse" x="5" y="0" width="304" height="309">
<path d="M192.168 0.875524L5.60174 108.02L121.94 308.473L308.507 201.328L192.168 0.875524Z" fill="white"/>
</mask>
<g mask="url(#mask26_2_6578)">
<path d="M171.012 234.009C172.006 233.846 172.895 233.857 173.679 234.044C174.464 234.231 175.103 234.582 175.599 235.099C176.095 235.615 176.417 236.286 176.565 237.112C176.713 237.938 176.644 238.673 176.356 239.319C176.069 239.964 175.588 240.498 174.914 240.922C174.239 241.346 173.405 241.639 172.41 241.803C171.41 241.968 170.52 241.959 169.739 241.775C168.96 241.591 168.323 241.241 167.826 240.724C167.331 240.208 167.008 239.537 166.86 238.711C166.712 237.885 166.782 237.15 167.069 236.504C167.356 235.859 167.836 235.323 168.506 234.897C169.175 234.47 170.011 234.175 171.012 234.009ZM171.282 235.512C170.854 235.582 170.471 235.695 170.133 235.853C169.796 236.011 169.513 236.205 169.286 236.439C169.059 236.671 168.901 236.943 168.811 237.256C168.722 237.568 168.71 237.906 168.775 238.272L168.82 238.524C168.886 238.889 169.015 239.203 169.208 239.465C169.401 239.726 169.644 239.93 169.94 240.077C170.234 240.224 170.569 240.318 170.942 240.358C171.315 240.399 171.715 240.382 172.143 240.312C172.572 240.242 172.954 240.128 173.292 239.97C173.629 239.813 173.912 239.618 174.139 239.385C174.366 239.153 174.525 238.881 174.615 238.573C174.705 238.265 174.717 237.928 174.652 237.563L174.608 237.31C174.541 236.945 174.412 236.63 174.218 236.365C174.026 236.099 173.781 235.894 173.487 235.746C173.191 235.599 172.857 235.505 172.484 235.466C172.111 235.426 171.71 235.441 171.282 235.512Z" fill="black"/>
</g>
<mask id="mask27_2_6578" style="mask-type:luminance" maskUnits="userSpaceOnUse" x="5" y="0" width="304" height="309">
<path d="M192.168 0.875524L5.60174 108.02L121.94 308.473L308.507 201.328L192.168 0.875524Z" fill="white"/>
</mask>
<g mask="url(#mask27_2_6578)">
<path d="M162.328 235.194L162.697 241.19L166.038 241.039L166.138 242.658L157.573 243.046L157.473 241.427L160.801 241.275L160.431 235.28L162.328 235.194Z" fill="black"/>
</g>
<mask id="mask28_2_6578" style="mask-type:luminance" maskUnits="userSpaceOnUse" x="5" y="0" width="304" height="309">
<path d="M192.168 0.875524L5.60174 108.02L121.94 308.473L308.507 201.328L192.168 0.875524Z" fill="white"/>
</mask>
<g mask="url(#mask28_2_6578)">
<path d="M144.27 234.526L145.288 242.508L143.292 242.086L142.792 237.323C142.773 237.22 142.761 237.099 142.755 236.959C142.748 236.818 142.74 236.675 142.73 236.53C142.721 236.385 142.719 236.259 142.723 236.156L142.648 236.14C142.618 236.215 142.582 236.304 142.539 236.405C142.497 236.505 142.455 236.606 142.414 236.706C142.372 236.806 142.33 236.899 142.287 236.984C142.244 237.069 142.21 237.14 142.183 237.194L140.049 241.4L137.564 240.876L137.15 236.13C137.145 236.039 137.14 235.924 137.132 235.787C137.124 235.65 137.118 235.507 137.113 235.359C137.108 235.212 137.109 235.081 137.115 234.969L137.039 234.954C137.009 235.03 136.972 235.116 136.927 235.212C136.882 235.308 136.836 235.404 136.786 235.499C136.739 235.595 136.693 235.684 136.65 235.77C136.607 235.855 136.567 235.932 136.532 235.999L134.299 240.185L132.488 239.801L136.394 232.861L138.65 233.339L139.123 238.366C139.13 238.482 139.14 238.607 139.151 238.746C139.161 238.884 139.168 239.019 139.168 239.151C139.169 239.283 139.167 239.398 139.165 239.495L139.219 239.506C139.259 239.41 139.31 239.296 139.369 239.166C139.428 239.035 139.486 238.909 139.544 238.789C139.601 238.669 139.648 238.568 139.687 238.486L141.959 234.038L144.27 234.526Z" fill="black"/>
</g>
<mask id="mask29_2_6578" style="mask-type:luminance" maskUnits="userSpaceOnUse" x="5" y="0" width="304" height="309">
<path d="M192.168 0.875524L5.60174 108.02L121.94 308.473L308.507 201.328L192.168 0.875524Z" fill="white"/>
</mask>
<g mask="url(#mask29_2_6578)">
<path d="M134.527 232.486L128.562 238.431L126.527 237.72L125.339 229.273L127.311 229.962L127.51 231.481L131.61 232.916L132.671 231.836L134.527 232.486ZM130.487 234.078L127.708 233.106L127.928 235.018C127.933 235.097 127.943 235.218 127.959 235.38C127.976 235.541 127.989 235.706 128 235.874C128.011 236.04 128.021 236.192 128.03 236.329C128.04 236.464 128.048 236.549 128.052 236.582L128.136 236.611C128.239 236.491 128.357 236.356 128.491 236.209C128.627 236.062 128.755 235.917 128.876 235.777C128.997 235.635 129.097 235.524 129.179 235.444L130.487 234.078Z" fill="black"/>
</g>
<mask id="mask30_2_6578" style="mask-type:luminance" maskUnits="userSpaceOnUse" x="5" y="0" width="304" height="309">
<path d="M192.168 0.875524L5.60174 108.02L121.94 308.473L308.507 201.328L192.168 0.875524Z" fill="white"/>
</mask>
<g mask="url(#mask30_2_6578)">
<path d="M122.911 228.153L121.664 230.927L123.206 236.646L121.128 235.676L120.182 231.89L120.082 231.843L116.631 233.577L114.653 232.655L119.92 230.114L121.167 227.338L122.911 228.153Z" fill="black"/>
</g>
<mask id="mask31_2_6578" style="mask-type:luminance" maskUnits="userSpaceOnUse" x="5" y="0" width="304" height="309">
<path d="M192.168 0.875524L5.60174 108.02L121.94 308.473L308.507 201.328L192.168 0.875524Z" fill="white"/>
</mask>
<g mask="url(#mask31_2_6578)">
<path d="M112.569 222.659L109.384 227.689L112.218 229.528L111.359 230.886L104.09 226.169L104.95 224.812L107.775 226.645L110.96 221.616L112.569 222.659Z" fill="black"/>
</g>
<mask id="mask32_2_6578" style="mask-type:luminance" maskUnits="userSpaceOnUse" x="5" y="0" width="304" height="309">
<path d="M192.168 0.875524L5.60174 108.02L121.94 308.473L308.507 201.328L192.168 0.875524Z" fill="white"/>
</mask>
<g mask="url(#mask32_2_6578)">
<path d="M104.004 216.335C104.789 216.985 105.372 217.667 105.753 218.381C106.135 219.095 106.297 219.806 106.239 220.513C106.181 221.221 105.891 221.894 105.368 222.536C104.847 223.178 104.247 223.596 103.571 223.791C102.893 223.987 102.171 223.964 101.404 223.724C100.637 223.483 99.8599 223.039 99.075 222.39C98.2851 221.736 97.6987 221.055 97.317 220.345C96.9369 219.635 96.7747 218.927 96.8326 218.22C96.891 217.514 97.1806 216.839 97.7037 216.197C98.2258 215.556 98.8251 215.138 99.5011 214.942C100.179 214.746 100.9 214.766 101.667 215.002C102.434 215.237 103.213 215.682 104.004 216.335ZM103.054 217.502C102.716 217.223 102.375 217.005 102.032 216.849C101.689 216.694 101.355 216.605 101.028 216.582C100.702 216.559 100.391 216.613 100.097 216.745C99.803 216.878 99.5399 217.084 99.3093 217.369L99.1497 217.565C98.9185 217.848 98.7692 218.147 98.7002 218.461C98.6321 218.774 98.6413 219.091 98.7266 219.408C98.8125 219.727 98.9655 220.04 99.1835 220.349C99.4009 220.658 99.6799 220.952 100.018 221.231C100.356 221.512 100.697 221.728 101.04 221.884C101.382 222.039 101.717 222.129 102.044 222.151C102.37 222.174 102.679 222.122 102.972 221.993C103.263 221.863 103.525 221.657 103.757 221.374L103.915 221.178C104.146 220.894 104.297 220.594 104.368 220.277C104.439 219.961 104.432 219.643 104.345 219.325C104.259 219.007 104.106 218.693 103.889 218.385C103.671 218.076 103.392 217.782 103.054 217.502Z" fill="black"/>
</g>
<mask id="mask33_2_6578" style="mask-type:luminance" maskUnits="userSpaceOnUse" x="5" y="0" width="304" height="309">
<path d="M192.168 0.875524L5.60174 108.02L121.94 308.473L308.507 201.328L192.168 0.875524Z" fill="white"/>
</mask>
<g mask="url(#mask33_2_6578)">
<path d="M95.9951 208.823C96.6891 209.569 97.179 210.321 97.4633 211.079C97.7476 211.836 97.8151 212.56 97.6631 213.252C97.5121 213.943 97.1354 214.572 96.5317 215.136C95.9285 215.701 95.2786 216.034 94.5799 216.139C93.8827 216.241 93.1683 216.122 92.4373 215.783C91.7067 215.442 90.995 214.9 90.3011 214.153C89.6025 213.401 89.1099 212.65 88.8243 211.897C88.5404 211.145 88.4731 210.424 88.624 209.732C88.7744 209.04 89.1517 208.413 89.7548 207.848C90.3586 207.283 91.009 206.949 91.7072 206.846C92.4055 206.743 93.1207 206.859 93.8503 207.193C94.5816 207.528 95.2965 208.071 95.9951 208.823ZM94.898 209.85C94.5989 209.529 94.2896 209.268 93.9694 209.069C93.6492 208.87 93.3287 208.736 93.0075 208.67C92.6852 208.604 92.3698 208.617 92.0613 208.708C91.7518 208.799 91.4632 208.969 91.1961 209.219L91.012 209.391C90.7454 209.642 90.5565 209.918 90.447 210.219C90.3375 210.52 90.3053 210.833 90.3489 211.159C90.3914 211.486 90.5016 211.815 90.6779 212.15C90.8537 212.484 91.0911 212.812 91.3902 213.134C91.6882 213.456 91.998 213.715 92.3188 213.915C92.6389 214.114 92.9594 214.248 93.2807 214.314C93.602 214.38 93.9163 214.368 94.2233 214.279C94.5293 214.191 94.8169 214.022 95.0834 213.771L95.2681 213.6C95.5347 213.349 95.7246 213.073 95.8366 212.769C95.9486 212.465 95.9829 212.15 95.9393 211.824C95.8957 211.498 95.7866 211.168 95.6102 210.834C95.4345 210.5 95.197 210.171 94.898 209.85Z" fill="black"/>
</g>
<mask id="mask34_2_6578" style="mask-type:luminance" maskUnits="userSpaceOnUse" x="5" y="0" width="304" height="309">
<path d="M192.168 0.875524L5.60174 108.02L121.94 308.473L308.507 201.328L192.168 0.875524Z" fill="white"/>
</mask>
<g mask="url(#mask34_2_6578)">
<path d="M89.58 201.455L83.2711 205.581L82.2101 203.968L84.6346 202.382L81.905 198.232L79.4805 199.819L78.4196 198.206L84.7279 194.078L85.7889 195.691L83.245 197.356L85.9746 201.505L88.5185 199.841L89.58 201.455Z" fill="black"/>
</g>
<mask id="mask35_2_6578" style="mask-type:luminance" maskUnits="userSpaceOnUse" x="5" y="0" width="304" height="309">
<path d="M192.168 0.875524L5.60174 108.02L121.94 308.473L308.507 201.328L192.168 0.875524Z" fill="white"/>
</mask>
<g mask="url(#mask35_2_6578)">
<path d="M81.9451 188.34C82.3947 189.254 82.6457 190.113 82.6977 190.917C82.7508 191.721 82.6038 192.43 82.2566 193.044C81.9093 193.657 81.3645 194.142 80.6191 194.502C79.8758 194.861 79.152 194.988 78.4523 194.88C77.751 194.772 77.0999 194.45 76.4961 193.911C75.894 193.373 75.3684 192.647 74.9188 191.732C74.4667 190.811 74.2134 189.951 74.1591 189.153C74.1047 188.354 74.2519 187.647 74.5981 187.034C74.9448 186.42 75.4906 185.934 76.235 185.575C76.9793 185.215 77.7027 185.09 78.4034 185.197C79.1041 185.304 79.7566 185.624 80.3607 186.159C80.9651 186.692 81.4929 187.419 81.9451 188.34ZM80.5916 188.994C80.3989 188.6 80.1773 188.261 79.9274 187.977C79.6775 187.693 79.4084 187.473 79.1189 187.315C78.83 187.158 78.5232 187.076 78.1992 187.072C77.8752 187.067 77.5483 187.145 77.2188 187.303L76.9914 187.413C76.6625 187.573 76.4004 187.779 76.2075 188.033C76.0145 188.287 75.8924 188.576 75.8378 188.899C75.7849 189.221 75.794 189.568 75.8657 189.938C75.9364 190.308 76.0699 190.69 76.2625 191.083C76.4568 191.477 76.6778 191.815 76.9266 192.1C77.1766 192.384 77.4463 192.605 77.7352 192.762C78.0247 192.92 78.3298 193.001 78.6507 193.008C78.971 193.013 79.2966 192.938 79.6265 192.777L79.8528 192.668C80.1834 192.509 80.4464 192.302 80.6425 192.046C80.8385 191.79 80.9633 191.501 81.0163 191.178C81.0702 190.855 81.0617 190.509 80.9883 190.139C80.9177 189.769 80.7852 189.386 80.5916 188.994Z" fill="black"/>
</g>
<mask id="mask36_2_6578" style="mask-type:luminance" maskUnits="userSpaceOnUse" x="5" y="0" width="304" height="309">
<path d="M192.168 0.875524L5.60174 108.02L121.94 308.473L308.507 201.328L192.168 0.875524Z" fill="white"/>
</mask>
<g mask="url(#mask36_2_6578)">
<path d="M78.4175 180.344L72.7928 182.281L73.926 185.463L72.4077 185.987L69.5031 177.825L71.0211 177.303L72.1499 180.475L77.7746 178.538L78.4175 180.344Z" fill="black"/>
</g>
<mask id="mask37_2_6578" style="mask-type:luminance" maskUnits="userSpaceOnUse" x="5" y="0" width="304" height="309">
<path d="M192.168 0.875524L5.60174 108.02L121.94 308.473L308.507 201.328L192.168 0.875524Z" fill="white"/>
</mask>
<g mask="url(#mask37_2_6578)">
<path d="M74.081 162.82L66.75 165.888L66.5686 163.852L70.974 162.124C71.0669 162.081 71.179 162.037 71.3114 161.993C71.4444 161.95 71.5789 161.905 71.7149 161.858C71.8504 161.812 71.969 161.777 72.0707 161.754L72.0633 161.677C71.9814 161.668 71.8863 161.656 71.7778 161.642C71.6692 161.628 71.5617 161.613 71.4537 161.599C71.3452 161.585 71.2434 161.568 71.15 161.55C71.0561 161.53 70.9791 161.515 70.9195 161.505L66.2711 160.544L66.0439 158.01L70.4597 156.371C70.545 156.343 70.6518 156.307 70.7821 156.264C70.9109 156.221 71.0455 156.179 71.1849 156.135C71.3254 156.09 71.4495 156.058 71.5582 156.035L71.5512 155.956C71.4693 155.948 71.3753 155.935 71.2712 155.917C71.1656 155.898 71.061 155.878 70.9562 155.856C70.8497 155.834 70.7504 155.814 70.6565 155.795C70.5631 155.776 70.4784 155.757 70.4028 155.741L65.7466 154.681L65.5806 152.833L73.3623 154.788L73.5681 157.088L68.9001 158.858C68.7913 158.896 68.6743 158.938 68.5457 158.984C68.4168 159.031 68.2895 159.073 68.1629 159.108C68.0373 159.142 67.9269 159.172 67.833 159.193L67.8379 159.248C67.9428 159.263 68.0671 159.281 68.2084 159.304C68.3507 159.327 68.4883 159.351 68.6189 159.375C68.7506 159.398 68.8606 159.418 68.9511 159.434L73.8702 160.464L74.081 162.82Z" fill="black"/>
</g>
<mask id="mask38_2_6578" style="mask-type:luminance" maskUnits="userSpaceOnUse" x="5" y="0" width="304" height="309">
<path d="M192.168 0.875524L5.60174 108.02L121.94 308.473L308.507 201.328L192.168 0.875524Z" fill="white"/>
</mask>
<g mask="url(#mask38_2_6578)">
<path d="M73.3505 152.831L65.9151 148.621L66.0018 146.47L73.7377 143.123L73.6545 145.206L72.2588 145.793L72.086 150.127L73.4286 150.87L73.3505 152.831ZM70.6453 149.345L70.7626 146.408L68.9971 147.118C68.9221 147.143 68.8093 147.186 68.659 147.244C68.5097 147.302 68.3566 147.358 68.1995 147.412C68.0425 147.466 67.8997 147.516 67.7725 147.56C67.6459 147.604 67.5664 147.633 67.5368 147.646L67.5331 147.735C67.6781 147.802 67.841 147.881 68.0214 147.974C68.2022 148.066 68.3784 148.151 68.5483 148.231C68.7177 148.312 68.8536 148.38 68.9556 148.437L70.6453 149.345Z" fill="black"/>
</g>
<mask id="mask39_2_6578" style="mask-type:luminance" maskUnits="userSpaceOnUse" x="5" y="0" width="304" height="309">
<path d="M192.168 0.875524L5.60174 108.02L121.94 308.473L308.507 201.328L192.168 0.875524Z" fill="white"/>
</mask>
<g mask="url(#mask39_2_6578)">
<path d="M74.2531 140.542L71.2335 140.06L66.213 143.037L66.5334 140.779L69.8795 138.88L69.8946 138.771L67.2276 135.89L67.5314 133.742L71.5025 138.164L74.5215 138.645L74.2531 140.542Z" fill="black"/>
</g>
<mask id="mask40_2_6578" style="mask-type:luminance" maskUnits="userSpaceOnUse" x="5" y="0" width="304" height="309">
<path d="M192.168 0.875524L5.60174 108.02L121.94 308.473L308.507 201.328L192.168 0.875524Z" fill="white"/>
</mask>
<g mask="url(#mask40_2_6578)">
<path d="M76.6797 129.057L70.9366 127.296L70.0082 130.511L68.4586 130.036L70.8389 121.792L72.389 122.268L71.4636 125.471L77.2067 127.232L76.6797 129.057Z" fill="black"/>
</g>
<mask id="mask41_2_6578" style="mask-type:luminance" maskUnits="userSpaceOnUse" x="5" y="0" width="304" height="309">
<path d="M192.168 0.875524L5.60174 108.02L121.94 308.473L308.507 201.328L192.168 0.875524Z" fill="white"/>
</mask>
<g mask="url(#mask41_2_6578)">
<path d="M80.3709 119.065C79.9809 119.994 79.5 120.736 78.9293 121.293C78.3569 121.849 77.7246 122.192 77.0301 122.322C76.3365 122.451 75.6058 122.348 74.8372 122.012C74.0692 121.676 73.4919 121.207 73.1059 120.604C72.7194 120.002 72.5285 119.298 72.5322 118.495C72.5363 117.689 72.7324 116.824 73.123 115.895C73.5163 114.96 73.996 114.216 74.562 113.66C75.1296 113.106 75.7588 112.764 76.4534 112.634C77.1479 112.504 77.8787 112.607 78.6462 112.945C79.4142 113.28 79.9915 113.749 80.378 114.351C80.7651 114.954 80.958 115.656 80.9591 116.458C80.9601 117.261 80.7631 118.13 80.3709 119.065ZM78.9745 118.454C79.1423 118.054 79.25 117.669 79.2975 117.296C79.3456 116.924 79.3327 116.577 79.2578 116.256C79.184 115.935 79.0403 115.649 78.8277 115.399C78.6147 115.15 78.3381 114.951 77.9991 114.803L77.7633 114.7C77.4243 114.551 77.0941 114.484 76.7738 114.501C76.4535 114.518 76.1533 114.609 75.8742 114.775C75.5947 114.943 75.3398 115.171 75.1079 115.463C74.877 115.755 74.6777 116.101 74.5089 116.502C74.3411 116.902 74.2334 117.287 74.1864 117.659C74.1383 118.031 74.1518 118.379 74.2256 118.7C74.3005 119.021 74.4409 119.306 74.6506 119.553C74.8609 119.802 75.1353 120 75.4749 120.149L75.709 120.252C76.0497 120.401 76.381 120.467 76.7051 120.452C77.0293 120.437 77.3301 120.347 77.6102 120.18C77.8887 120.014 78.1447 119.784 78.375 119.492C78.6058 119.2 78.8068 118.855 78.9745 118.454Z" fill="black"/>
</g>
<mask id="mask42_2_6578" style="mask-type:luminance" maskUnits="userSpaceOnUse" x="5" y="0" width="304" height="309">
<path d="M192.168 0.875524L5.60174 108.02L121.94 308.473L308.507 201.328L192.168 0.875524Z" fill="white"/>
</mask>
<g mask="url(#mask42_2_6578)">
<path d="M85.3594 109.276C84.8504 110.143 84.2762 110.814 83.6344 111.289C82.9943 111.764 82.3205 112.02 81.614 112.056C80.9066 112.093 80.1943 111.894 79.4752 111.461C78.7561 111.027 78.2446 110.487 77.9391 109.84C77.6336 109.192 77.5358 108.472 77.6451 107.677C77.7549 106.88 78.0632 106.049 78.5722 105.182C79.0856 104.308 79.6602 103.635 80.2956 103.162C80.931 102.688 81.6028 102.433 82.3092 102.397C83.015 102.36 83.7283 102.558 84.448 102.993C85.1671 103.426 85.6786 103.966 85.9842 104.614C86.2891 105.26 86.3902 105.981 86.2856 106.775C86.181 107.569 85.8718 108.403 85.3594 109.276ZM84.0519 108.487C84.2708 108.113 84.4291 107.746 84.5256 107.384C84.621 107.023 84.6532 106.678 84.6213 106.35C84.5904 106.022 84.4848 105.722 84.3058 105.446C84.1269 105.171 83.8784 104.937 83.5594 104.746L83.3409 104.613C83.0229 104.421 82.7026 104.312 82.382 104.285C82.062 104.26 81.752 104.311 81.4531 104.438C81.1537 104.567 80.8694 104.759 80.6014 105.018C80.3334 105.276 80.0902 105.592 79.8713 105.966C79.6518 106.339 79.4941 106.707 79.3977 107.069C79.3012 107.431 79.269 107.776 79.3009 108.103C79.3328 108.431 79.4368 108.731 79.6119 109.004C79.788 109.277 80.0348 109.51 80.3532 109.701L80.5723 109.835C80.8907 110.026 81.2123 110.136 81.5352 110.164C81.8596 110.193 82.1713 110.142 82.4702 110.015C82.7695 109.886 83.0522 109.693 83.3212 109.434C83.5888 109.177 83.8331 108.861 84.0519 108.487Z" fill="black"/>
</g>
<mask id="mask43_2_6578" style="mask-type:luminance" maskUnits="userSpaceOnUse" x="5" y="0" width="304" height="309">
<path d="M192.168 0.875524L5.60174 108.02L121.94 308.473L308.507 201.328L192.168 0.875524Z" fill="white"/>
</mask>
<g mask="url(#mask43_2_6578)">
<path d="M90.692 101.006L84.8813 95.9991L86.1123 94.5503L88.3455 96.4748L91.5112 92.7476L89.278 90.8231L90.509 89.3742L96.3196 94.3812L95.0887 95.83L92.7462 93.8121L89.5799 97.5382L91.923 99.5572L90.692 101.006Z" fill="black"/>
</g>
<mask id="mask44_2_6578" style="mask-type:luminance" maskUnits="userSpaceOnUse" x="5" y="0" width="304" height="309">
<path d="M192.168 0.875524L5.60174 108.02L121.94 308.473L308.507 201.328L192.168 0.875524Z" fill="white"/>
</mask>
<g mask="url(#mask44_2_6578)">
<path d="M101.133 90.0716C100.388 90.7436 99.6378 91.2095 98.8815 91.4708C98.1257 91.7305 97.4033 91.7729 96.7138 91.597C96.0253 91.4204 95.3992 91.0196 94.8361 90.3929C94.2746 89.7667 93.9424 89.0994 93.8398 88.3939C93.7381 87.6877 93.8573 86.9733 94.1973 86.2506C94.5377 85.5263 95.0793 84.8287 95.8253 84.1561C96.5758 83.4795 97.326 83.0109 98.0769 82.7498C98.8268 82.4893 99.5475 82.4465 100.236 82.6231C100.926 82.799 101.552 83.1999 102.114 83.8271C102.677 84.4538 103.008 85.12 103.11 85.8262C103.213 86.5318 103.096 87.2477 102.761 87.9701C102.426 88.6941 101.884 89.3949 101.133 90.0716ZM100.11 88.932C100.432 88.6425 100.691 88.3401 100.89 88.0247C101.09 87.7093 101.223 87.3914 101.29 87.0699C101.355 86.749 101.344 86.4316 101.254 86.1167C101.162 85.8024 100.993 85.5061 100.744 85.2291L100.572 85.0375C100.324 84.7604 100.048 84.5613 99.7486 84.4405C99.4488 84.3197 99.136 84.2762 98.8107 84.3082C98.4859 84.3412 98.1565 84.4397 97.822 84.6053C97.4892 84.7714 97.1616 84.9986 96.8398 85.2881C96.5197 85.578 96.2595 85.8809 96.0605 86.1947C95.8611 86.5101 95.7284 86.8291 95.6612 87.1495C95.5957 87.4704 95.606 87.7868 95.6937 88.0991C95.7824 88.4109 95.951 88.7061 96.1998 88.9832L96.3715 89.1748C96.6203 89.4518 96.8961 89.652 97.1988 89.7753C97.5014 89.8986 97.8154 89.9443 98.1391 89.9119C98.4655 89.8793 98.7949 89.7808 99.1278 89.6147C99.4622 89.4491 99.7898 89.2219 100.11 88.932Z" fill="black"/>
</g>
<mask id="mask45_2_6578" style="mask-type:luminance" maskUnits="userSpaceOnUse" x="5" y="0" width="304" height="309">
<path d="M192.168 0.875524L5.60174 108.02L121.94 308.473L308.507 201.328L192.168 0.875524Z" fill="white"/>
</mask>
<g mask="url(#mask45_2_6578)">
<path d="M107.854 84.4561L104.357 79.5258L101.641 81.4473L100.698 80.1162L107.665 75.1899L108.608 76.521L105.9 78.4351L109.396 83.3654L107.854 84.4561Z" fill="black"/>
</g>
<mask id="mask46_2_6578" style="mask-type:luminance" maskUnits="userSpaceOnUse" x="5" y="0" width="304" height="309">
<path d="M192.168 0.875524L5.60174 108.02L121.94 308.473L308.507 201.328L192.168 0.875524Z" fill="white"/>
</mask>
<g mask="url(#mask46_2_6578)">
<path d="M159.631 182.181C149.829 176.606 145.575 171.433 146.071 165.643C147.494 166.667 148.803 167.862 150.319 168.652C154.063 170.604 158.037 168.18 157.512 164.023C157.22 161.701 156.002 159.302 154.632 157.334C153.288 155.403 151.19 154.007 149.48 152.316C146.914 149.781 145.899 146.673 146.65 143.201C147.48 139.37 148.813 135.587 145.372 132.013C148.952 132.643 151.176 134.449 152.12 137.497C152.714 139.413 152.637 141.533 153.266 143.432C153.875 145.272 154.634 147.406 156.028 148.536C157.003 149.326 159.458 149.182 160.707 148.487C162.364 147.563 162.282 145.563 161.238 143.832C160.865 143.217 160.514 142.589 159.904 141.539C161.237 141.673 162.341 141.566 163.285 141.915C166.675 143.168 168.177 145.936 168.818 149.302C169.145 151.017 169.112 152.937 169.927 154.384C170.738 155.826 172.393 157.695 173.699 157.733C175.237 157.775 176.888 156.163 178.309 155.039C178.976 154.511 179.217 153.445 179.771 152.399C183.409 157.109 183.784 162.138 183.452 167.832C188.693 159.473 190.07 150.045 186.959 141.366C184.906 135.64 182.169 130.148 179.632 124.6C179.203 123.662 178.233 122.967 177.316 121.938C177.195 124.122 177.299 125.803 176.977 127.391C176.059 131.913 172.412 133.169 168.822 130.127C167.537 129.037 166.35 127.536 165.753 125.984C164.696 123.244 164.091 120.33 163.365 117.472C162.616 114.526 162.187 111.479 161.19 108.621C159.396 103.483 153.802 100.049 149.091 100.969C149.565 101.787 150.076 102.547 150.466 103.363C151.66 105.86 151.202 108.98 149.377 110.159C147.066 111.654 145.059 110.469 143.456 108.852C140.258 105.631 136.412 103.843 132.101 102.885C127.588 101.884 124.785 99.1978 123.915 94.57C123.793 93.9273 123.489 93.3173 123.197 92.4883C120.225 97.9936 121.948 105.17 126.898 108.798C128.238 109.781 129.682 110.642 130.934 111.726C133.261 113.741 133.634 116.532 132.049 118.914C130.538 121.183 127.645 121.819 125.006 120.46C124.342 120.118 123.683 119.772 123.021 119.428C122.818 119.622 122.614 119.814 122.41 120.008C123.179 121.334 123.936 122.668 124.722 123.985C126.333 126.687 128.095 129.31 129.531 132.1C130.49 133.964 130.325 135.943 128.388 137.23C126.367 138.575 124.583 138.002 123.036 136.229C122.062 135.114 121.166 133.895 120.042 132.955C118.632 131.776 117.026 130.835 115.488 129.781C116.684 132.767 118.093 135.298 118.698 137.999C120.085 144.202 123.461 148.37 129.39 150.794C131.594 151.696 133.605 153.433 135.3 155.183C136.851 156.786 137.166 159.027 135.954 161.084C134.791 163.06 132.876 163.544 130.716 163.228C129.273 163.015 127.841 162.709 126.432 162.449C130.573 175.498 149.942 186.323 159.631 182.181Z" fill="black"/>
</g>
<mask id="mask47_2_6578" style="mask-type:luminance" maskUnits="userSpaceOnUse" x="5" y="0" width="304" height="309">
<path d="M192.168 0.875524L5.60174 108.02L121.94 308.473L308.507 201.328L192.168 0.875524Z" fill="white"/>
</mask>
<g mask="url(#mask47_2_6578)">
<path d="M195.901 180.42C195.865 179.286 195.151 178.958 193.791 179.38L193.776 179.385C193.487 179.475 193.308 179.105 193.535 178.907C194.774 177.823 197.523 175.995 198.081 174.137C198.561 172.539 199.39 169.79 199.829 168.314C199.985 167.793 200.055 167.566 199.335 167.98L159.661 190.817C159.655 190.821 159.649 190.825 159.643 190.828C159.182 191.15 158.735 191.417 158.479 192.104L156.654 198.182C156.572 198.475 156.498 198.822 156.198 199.012L155.595 199.363C155.305 199.526 155.273 199.23 155.353 198.984L157.196 192.863C157.344 192.34 157.275 192.191 156.804 192.463L146.547 198.367C145.299 199.099 144.767 199.633 144.361 200.808L142.743 206.188C142.58 206.72 142.729 206.73 143.299 206.437L149.322 202.97C149.475 202.878 149.627 202.794 149.692 202.754C149.722 202.735 149.712 202.796 149.683 202.829L146.109 206.04C144.639 207.372 143.329 208.811 142.309 210.41C141.078 212.34 140.427 214.138 139.856 215.799L138.174 221.419C138.087 221.702 138.195 221.711 138.452 221.579L150.159 214.84C150.166 214.836 150.174 214.831 150.181 214.826C150.492 214.606 150.737 214.395 150.815 214.117C150.815 214.117 153.244 205.904 154.391 202.206C154.454 202.005 154.641 201.765 155.206 201.429C155.822 201.067 155.753 201.182 155.581 201.756L152.061 213.478C151.993 213.838 152.292 213.612 152.582 213.445L164.232 206.739C164.654 206.516 164.978 206.258 165.13 205.845L169.448 191.467C169.467 191.403 169.511 191.349 169.569 191.315L188.211 180.584C188.701 180.302 188.723 180.359 188.569 180.773C188.418 181.177 188.064 181.527 187.671 181.815C187.482 181.953 187.294 182.053 187.108 182.16L177.937 187.452C176.216 188.442 173.936 189.714 172.517 191.198C170.369 193.444 169.394 195.148 168.762 197.263L166.497 204.808C166.349 205.337 166.499 205.415 167.061 205.114C167.341 204.963 167.624 204.81 167.909 204.645C171.955 202.303 175.997 199.972 180.048 197.611C183.139 195.809 183.926 195.326 187.035 193.455C188.333 192.676 189.657 191.586 190.906 190.233C192.511 188.496 193.648 186.769 194.511 185.041C195.408 183.248 195.939 181.675 195.901 180.42ZM187.38 184.78C187.203 185.348 186.599 185.696 186.334 185.848L179.03 190.053C178.645 190.278 178.651 190.247 178.747 189.877C178.929 189.182 179.226 188.986 179.706 188.71L187.112 184.447C187.549 184.195 187.515 184.35 187.38 184.78Z" fill="black"/>
</g>
<path d="M224.044 165.157L201.27 178.248C201.24 178.266 201.251 178.166 201.265 178.132C201.35 177.929 201.658 177.75 201.818 177.608C202.853 176.703 203.818 175.892 204.844 174.962C206.31 173.635 207.618 172.2 208.636 170.607C209.865 168.683 210.192 168.099 210.763 166.443C211.44 164.476 211.947 162.6 212.542 160.676C212.63 160.395 212.519 160.381 212.263 160.513L201.876 166.479C201.562 166.7 201.352 166.935 201.273 167.216L194.917 188.347C194.691 189.1 194.691 189.1 195.45 188.664L219.456 174.864L221.811 173.51C222.177 173.299 222.384 172.831 222.454 172.598C223.086 170.496 223.978 167.532 224.557 165.607C224.888 164.509 224.829 164.705 224.044 165.157Z" fill="black"/>
</svg>
