<svg width="1588" height="243" viewBox="0 0 1588 243" fill="none" xmlns="http://www.w3.org/2000/svg">
<path d="M1085.2 136.854C1093.47 121.775 1086.48 112.075 1065.14 107.39L1064.92 107.353C1060.38 106.365 1060.82 100.179 1065.4 99.2643C1090.21 94.4329 1140.83 91.2119 1162.58 71.0809C1181.24 53.8048 1213.45 24.084 1230.65 8.08902C1236.73 2.45232 1239.4 0 1226.63 0H523.213C523.103 0 522.994 0 522.884 0C514.282 0.732038 506.267 0.841843 497.592 7.90601L426.511 73.6796C423.18 76.9006 419.52 80.8902 414.03 81.1098L403.305 81.183C398.218 81.1098 400.048 77.0104 403.013 74.4117L474.643 8.23543C480.645 2.48893 480.865 0.0366027 472.483 0.0366027H290.608C268.391 0.219612 257.191 3.18436 242.733 15.5192L179.778 73.7162C173.519 79.4627 175.422 80.7072 185.268 81.1464H292.072C294.817 81.1098 297.453 81.1464 298.661 81.1098C299.21 81.1098 298.587 81.8052 297.965 82.0249L225.786 97.0682C195.992 103.437 167.479 112.404 141.639 125.618C110.417 141.613 87.9069 160.207 67.5197 177.629L1.85589 238.498C-1.47488 241.536 -0.12061 242.488 4.30822 242.671H211.878C212.024 242.671 212.17 242.671 212.28 242.634C218.1 242.122 222.968 241.17 226.152 238.132C226.152 238.132 321.72 149.006 365.423 109.257C367.802 107.097 372.157 105.377 382.259 105.267C393.24 105.157 391.446 106.146 384.712 112.331L247.674 239.157C244.014 243.366 249.724 242.671 254.848 242.671H461.393C468.713 242.927 475.045 242.012 480.206 237.766L648.355 82.2079C649.124 81.5124 650.112 81.1098 651.137 81.1098H981.689C990.363 81.1098 990.217 82.0249 985.019 86.2707C979.895 90.4433 972.502 92.3466 965.035 93.1518C961.448 93.5545 958.19 93.4446 954.896 93.4446L792.201 93.5911C761.711 93.5911 721.596 93.0786 691.289 101.79C645.427 115.003 619.33 129.937 594.66 152.85L506.45 234.472C500.41 240.291 501.801 242.451 511.574 242.744C516.479 242.89 521.42 243 526.471 243C598.284 242.817 669.987 242.78 742.056 242.378C797.032 242.085 811.234 241.682 866.978 240.657C890.22 240.218 916.244 235.936 943.257 227.664C977.992 217.013 1006.39 202.994 1031.17 186.889C1056.87 170.162 1076.05 153.545 1085.2 136.854ZM938.315 129.717C931.581 135.83 920.856 135.83 916.171 135.83C876.458 135.83 786.674 135.83 786.674 135.83C779.793 135.866 780.122 135.5 784.258 131.401C792.018 123.678 797.508 123.348 806 123.348C845.273 123.348 899.554 123.348 937.327 123.348C945.05 123.348 943.44 125.105 938.315 129.717Z" fill="black"/>
<path d="M1575.66 149.885C1575.66 149.885 1261.69 149.885 1171.18 149.885C1170.63 149.885 1171.58 148.64 1171.98 148.348C1174.69 146.298 1180.18 146.261 1183.4 145.639C1204.19 141.54 1223.3 138.209 1244.12 133.743C1273.92 127.375 1302.43 118.407 1328.27 105.194C1359.49 89.1988 1368.39 84.0014 1388.77 66.5788C1413.01 45.8622 1434.23 25.0723 1457.04 4.31903C1460.37 1.28107 1459.01 0.256215 1454.59 0.0732055L1270.15 0C1264.26 0.512427 1259.64 2.0131 1256.42 5.12426L1008.55 234.508C999.733 242.671 999.733 242.671 1013.2 242.671H1439.58C1449.5 242.671 1466.85 242.671 1481.38 242.671C1487.89 242.671 1494.26 238.095 1497.01 235.57C1521.64 212.767 1556.45 180.594 1579.03 159.694C1591.92 147.762 1589.61 149.885 1575.66 149.885Z" fill="black"/>
</svg>
