<svg width="447" height="449" viewBox="0 0 447 449" fill="none" xmlns="http://www.w3.org/2000/svg" xmlns:xlink="http://www.w3.org/1999/xlink">
<path d="M223.5 0L247.043 30.6091L277.226 6.52356L292.76 41.8773L327.83 25.7151L334.452 63.7589L372.371 56.4593L369.695 94.9822L408.26 96.9695L396.443 133.733L433.411 144.891L413.139 177.758L446.363 197.44L418.815 224.5L446.363 251.56L413.139 271.242L433.411 304.109L396.443 315.267L408.26 352.031L369.695 354.018L372.371 392.541L334.452 385.241L327.83 423.285L292.76 407.123L277.226 442.476L247.043 418.391L223.5 449L199.957 418.391L169.774 442.476L154.24 407.123L119.17 423.285L112.548 385.241L74.629 392.541L77.3046 354.018L38.7401 352.031L50.5572 315.267L13.5889 304.109L33.8605 271.242L0.636856 251.56L28.185 224.5L0.636856 197.44L33.8605 177.758L13.5889 144.891L50.5572 133.733L38.7401 96.9695L77.3046 94.9822L74.629 56.4593L112.548 63.7589L119.17 25.7151L154.24 41.8773L169.774 6.52356L199.957 30.6091L223.5 0Z" fill="#000"/>
<defs>
<pattern id="pattern0" patternContentUnits="objectBoundingBox" width="1" height="1">
<use xlink:href="#image0_1417_20" transform="translate(0 -0.125) scale(0.00177305)"/>
</pattern>
</defs>
</svg>
