<svg width="2704" height="78" viewBox="0 0 2704 78" fill="none" xmlns="http://www.w3.org/2000/svg">
<rect x="0.218262" y="0.547241" width="2703.21" height="77.1866" fill="#F1CD31"/>
<path d="M268.34 17.927L257.41 32.5996H247.549L258.479 17.927H247.63L247.66 17.8864H210.382L200.313 31.5092H216.366L194.478 60.8902H226.472L237.403 46.2172H247.264L236.334 60.8902H268.361L300.367 17.9266H268.34V17.927ZM423.541 60.8602H465.548L465.575 56.0974H427.058L423.541 60.8602ZM465.575 47.237H433.585L430.067 51.9993H465.548L465.575 47.237ZM199.982 47.237H157.974L157.947 51.9993H196.464L199.982 47.237ZM157.947 60.8602H189.937L193.455 56.0974H157.974L157.947 60.8602ZM356.692 49.4145C360.717 44.0121 360.223 40.304 356.537 38.7374C361.055 36.7872 365.328 33.6227 368.4 29.4987C374.068 22.0181 370.803 17.9586 363.34 17.9906H307.272L275.266 60.9543H334.494C341.87 60.9543 351.192 56.9268 356.692 49.4145ZM326.886 47.8479C325.814 49.2864 323.561 50.725 322.124 50.725H314.881L319.168 44.9707H326.411C327.848 44.9711 327.958 46.4097 326.886 47.8479ZM336.26 31.0654C335.188 32.504 332.911 33.9741 331.475 33.9741H327.36L331.67 28.1883H335.785C337.221 28.1883 337.331 29.6268 336.26 31.0654ZM395.571 47.2727L417.432 17.927H385.437L353.431 60.8906H418.917L429.062 47.2727H395.571Z" fill="#EE3928"/>
<path d="M684.477 17.927L673.547 32.5996H663.685L674.616 17.927H663.767L663.797 17.8864H626.519L616.45 31.5092H632.502L610.614 60.8902H642.609L653.54 46.2172H663.401L652.471 60.8902H684.497L716.504 17.9266H684.477V17.927ZM839.677 60.8602H881.684L881.711 56.0974H843.195L839.677 60.8602ZM881.712 47.237H849.722L846.204 51.9993H881.685L881.712 47.237ZM616.119 47.237H574.111L574.084 51.9993H612.6L616.119 47.237ZM574.084 60.8602H606.074L609.592 56.0974H574.111L574.084 60.8602ZM772.829 49.4145C776.854 44.0121 776.36 40.304 772.674 38.7374C777.191 36.7872 781.465 33.6227 784.537 29.4987C790.205 22.0181 786.939 17.9586 779.477 17.9906H723.409L691.403 60.9543H750.631C758.006 60.9543 767.328 56.9268 772.829 49.4145ZM743.023 47.8479C741.951 49.2864 739.698 50.725 738.261 50.725H731.018L735.304 44.9707H742.548C743.985 44.9711 744.094 46.4097 743.023 47.8479ZM752.396 31.0654C751.325 32.504 749.048 33.9741 747.611 33.9741H743.497L747.807 28.1883H751.922C753.358 28.1883 753.468 29.6268 752.396 31.0654ZM811.707 47.2727L833.569 17.927H801.574L769.568 60.8906H835.054L845.199 47.2727H811.707Z" fill="#EE3928"/>
<path d="M1100.61 17.927L1089.68 32.5996H1079.82L1090.75 17.927H1079.9L1079.93 17.8864H1042.66L1032.59 31.5092H1048.64L1026.75 60.8902H1058.75L1069.68 46.2172H1079.54L1068.61 60.8902H1100.63L1132.64 17.9266H1100.61V17.927ZM1255.81 60.8602H1297.82L1297.85 56.0974H1259.33L1255.81 60.8602ZM1297.85 47.237H1265.86L1262.34 51.9993H1297.82L1297.85 47.237ZM1032.26 47.237H990.248L990.221 51.9993H1028.74L1032.26 47.237ZM990.221 60.8602H1022.21L1025.73 56.0974H990.248L990.221 60.8602ZM1188.97 49.4145C1192.99 44.0121 1192.5 40.304 1188.81 38.7374C1193.33 36.7872 1197.6 33.6227 1200.67 29.4987C1206.34 22.0181 1203.08 17.9586 1195.61 17.9906H1139.55L1107.54 60.9543H1166.77C1174.14 60.9543 1183.46 56.9268 1188.97 49.4145ZM1159.16 47.8479C1158.09 49.2864 1155.83 50.725 1154.4 50.725H1147.15L1151.44 44.9707H1158.68C1160.12 44.9711 1160.23 46.4097 1159.16 47.8479ZM1168.53 31.0654C1167.46 32.504 1165.18 33.9741 1163.75 33.9741H1159.63L1163.94 28.1883H1168.06C1169.49 28.1883 1169.6 29.6268 1168.53 31.0654ZM1227.84 47.2727L1249.71 17.927H1217.71L1185.7 60.8906H1251.19L1261.34 47.2727H1227.84Z" fill="#EE3928"/>
<path d="M1516.75 17.927L1505.82 32.5996H1495.96L1506.89 17.927H1496.04L1496.07 17.8864H1458.79L1448.72 31.5092H1464.78L1442.89 60.8902H1474.88L1485.81 46.2172H1495.67L1484.74 60.8902H1516.77L1548.78 17.9266H1516.75V17.927ZM1671.95 60.8602H1713.96L1713.98 56.0974H1675.47L1671.95 60.8602ZM1713.99 47.237H1682L1678.48 51.9993H1713.96L1713.99 47.237ZM1448.39 47.237H1406.38L1406.36 51.9993H1444.87L1448.39 47.237ZM1406.36 60.8602H1438.35L1441.86 56.0974H1406.38L1406.36 60.8602ZM1605.1 49.4145C1609.13 44.0121 1608.63 40.304 1604.95 38.7374C1609.46 36.7872 1613.74 33.6227 1616.81 29.4987C1622.48 22.0181 1619.21 17.9586 1611.75 17.9906H1555.68L1523.68 60.9543H1582.9C1590.28 60.9543 1599.6 56.9268 1605.1 49.4145ZM1575.3 47.8479C1574.22 49.2864 1571.97 50.725 1570.53 50.725H1563.29L1567.58 44.9707H1574.82C1576.26 44.9711 1576.37 46.4097 1575.3 47.8479ZM1584.67 31.0654C1583.6 32.504 1581.32 33.9741 1579.88 33.9741H1575.77L1580.08 28.1883H1584.19C1585.63 28.1883 1585.74 29.6268 1584.67 31.0654ZM1643.98 47.2727L1665.84 17.927H1633.85L1601.84 60.8906H1667.33L1677.47 47.2727H1643.98Z" fill="#EE3928"/>
<path d="M1932.89 17.927L1921.96 32.5996H1912.1L1923.03 17.927H1912.18L1912.21 17.8864H1874.93L1864.86 31.5092H1880.91L1859.02 60.8902H1891.02L1901.95 46.2172H1911.81L1900.88 60.8902H1932.91L1964.91 17.9266H1932.89V17.927ZM2088.09 60.8602H2130.09L2130.12 56.0974H2091.61L2088.09 60.8602ZM2130.12 47.237H2098.13L2094.61 51.9993H2130.09L2130.12 47.237ZM1864.53 47.237H1822.52L1822.49 51.9993H1861.01L1864.53 47.237ZM1822.49 60.8602H1854.48L1858 56.0974H1822.52L1822.49 60.8602ZM2021.24 49.4145C2025.26 44.0121 2024.77 40.304 2021.08 38.7374C2025.6 36.7872 2029.87 33.6227 2032.95 29.4987C2038.61 22.0181 2035.35 17.9586 2027.89 17.9906H1971.82L1939.81 60.9543H1999.04C2006.42 60.9543 2015.74 56.9268 2021.24 49.4145ZM1991.43 47.8479C1990.36 49.2864 1988.11 50.725 1986.67 50.725H1979.43L1983.71 44.9707H1990.96C1992.39 44.9711 1992.5 46.4097 1991.43 47.8479ZM2000.81 31.0654C1999.73 32.504 1997.46 33.9741 1996.02 33.9741H1991.91L1996.22 28.1883H2000.33C2001.77 28.1883 2001.88 29.6268 2000.81 31.0654ZM2060.12 47.2727L2081.98 17.927H2049.98L2017.98 60.8906H2083.46L2093.61 47.2727H2060.12Z" fill="#EE3928"/>
<path d="M2349.02 17.927L2338.09 32.5996H2328.23L2339.16 17.927H2328.31L2328.34 17.8864H2291.07L2281 31.5092H2297.05L2275.16 60.8902H2307.16L2318.09 46.2172H2327.95L2317.02 60.8902H2349.04L2381.05 17.9266H2349.02V17.927ZM2504.22 60.8602H2546.23L2546.26 56.0974H2507.74L2504.22 60.8602ZM2546.26 47.237H2514.27L2510.75 51.9993H2546.23L2546.26 47.237ZM2280.66 47.237H2238.66L2238.63 51.9993H2277.15L2280.66 47.237ZM2238.63 60.8602H2270.62L2274.14 56.0974H2238.66L2238.63 60.8602ZM2437.38 49.4145C2441.4 44.0121 2440.91 40.304 2437.22 38.7374C2441.74 36.7872 2446.01 33.6227 2449.08 29.4987C2454.75 22.0181 2451.49 17.9586 2444.02 17.9906H2387.96L2355.95 60.9543H2415.18C2422.55 60.9543 2431.87 56.9268 2437.38 49.4145ZM2407.57 47.8479C2406.5 49.2864 2404.24 50.725 2402.81 50.725H2395.56L2399.85 44.9707H2407.09C2408.53 44.9711 2408.64 46.4097 2407.57 47.8479ZM2416.94 31.0654C2415.87 32.504 2413.59 33.9741 2412.16 33.9741H2408.04L2412.35 28.1883H2416.47C2417.9 28.1883 2418.01 29.6268 2416.94 31.0654ZM2476.25 47.2727L2498.11 17.927H2466.12L2434.11 60.8906H2499.6L2509.75 47.2727H2476.25Z" fill="#EE3928"/>
</svg>
