<svg width="634" height="951" viewBox="0 0 634 951" fill="none" xmlns="http://www.w3.org/2000/svg">
<path d="M145.917 727.049L0 388.267L29.6064 401.378L16.495 348.087L49.062 388.267V375.578L145.917 488.929L335.398 35.1047L329.477 136.612L362.044 99.3929L319.749 255.884L475.817 35.1047L458.476 78.2455L529.532 0L495.696 73.1701L518.958 54.5604L385.306 333.706L634 280.415L63.4423 950.366L73.5931 902.572L13.1114 939.792L145.917 727.049Z" fill="black"/>
<path fill-rule="evenodd" clip-rule="evenodd" d="M235.892 458.194L167.944 710.131L38.9113 409.737L152.924 544.232L317.458 155.768L254.427 389.471L464.762 103.199L334.087 373.998L559.138 325.856L74.4123 893.78L367.593 425.149L235.892 458.194Z" fill="#F1CD31"/>
</svg>
